<?xml version="1.0" encoding="utf-8"?>
<!-- Generator: Adobe Illustrator 27.0.0, SVG Export Plug-In . SVG Version: 6.00 Build 0)  -->
<svg version="1.1" id="Layer_1" xmlns="http://www.w3.org/2000/svg" xmlns:xlink="http://www.w3.org/1999/xlink" x="0px" y="0px"
	 viewBox="0 0 234 234" style="enable-background:new 0 0 234 234;" xml:space="preserve">
<style type="text/css">
	.st0{fill:url(#SVGID_1_);}
	.st1{fill:url(#SVGID_00000130620813154826669390000008805830675353701527_);}
	.st2{fill:url(#SVGID_00000177445621804680243030000003182004926891207827_);}
	.st3{fill:url(#SVGID_00000056423677073523051480000017586246013060930192_);}
	.st4{fill:url(#SVGID_00000005253192543067654550000007749615903840363396_);}
	.st5{fill:url(#SVGID_00000062152185083992088260000002863962024290855851_);}
	.st6{fill:url(#SVGID_00000103234016280832510360000015154160673064335772_);}
	.st7{fill:url(#SVGID_00000150103097848042350360000008398775332313649298_);}
	.st8{fill:url(#SVGID_00000135664917508774395360000006704203904017774478_);}
	.st9{fill:url(#SVGID_00000098210784448675663110000004248414800934891170_);}
	.st10{fill:url(#SVGID_00000043452778479828138640000008163734790758396572_);}
	.st11{fill:url(#SVGID_00000059296218353344006510000018119540027157326262_);}
	.st12{fill:url(#SVGID_00000005248693853259713470000006961605153241892239_);}
	.st13{fill:url(#SVGID_00000168804827252068534220000011546198658394313858_);}
	.st14{fill:url(#SVGID_00000096739900569985742130000015434742859397970835_);}
	.st15{fill:url(#SVGID_00000119098469712606159520000013497067770391378825_);}
	.st16{fill:url(#SVGID_00000124152868085174925140000018446523308481434285_);}
	.st17{fill:url(#SVGID_00000046319006620270068110000012523398001109269416_);}
	.st18{fill:url(#SVGID_00000072969892188363560100000001665694116964515754_);}
	.st19{fill:url(#SVGID_00000153682684107504277370000003800083929642386104_);}
	.st20{fill:url(#SVGID_00000077302260197069838840000016256626718247591564_);}
	.st21{fill:url(#SVGID_00000139259653803234010900000011625441696677641099_);}
	.st22{fill:url(#SVGID_00000107547624695825711000000002780549023890326955_);}
	.st23{fill:url(#SVGID_00000065765162425340264620000001479922322325188760_);}
	.st24{fill:#FFFFFF;}
</style>
<g>
	<path d="M33.63,200.81c-0.76,2.55-2.64,4.48-6.05,4.48c-4.62,0-7.06-3.68-7.06-8.21c0-4.35,2.39-8.3,7.08-8.3
		c3.47,0,5.52,1.93,6.05,4.62h-1.24c-0.74-2.09-2.09-3.47-4.88-3.47c-4,0-5.68,3.66-5.68,7.13c0,3.45,1.66,7.08,5.77,7.08
		c2.62,0,3.96-1.36,4.76-3.33H33.63z"/>
	<path d="M45.98,199.34c0,3.2-1.77,6.05-5.2,6.05c-3.1,0-5.04-2.55-5.04-6.03c0-3.29,1.82-6.02,5.15-6.02
		C43.95,193.34,45.98,195.73,45.98,199.34z M36.96,199.36c0,2.74,1.47,4.94,3.91,4.94c2.48,0,3.89-2.05,3.89-4.94
		c0-2.71-1.38-4.94-3.93-4.94C38.2,194.42,36.96,196.61,36.96,199.36z"/>
	<path d="M48.83,196.58c0-0.99,0-2.07-0.02-2.97h1.13c0.02,0.39,0.07,1.38,0.05,2.05c0.48-1.15,1.54-2.32,3.45-2.32
		c1.61,0,2.87,0.8,3.33,2.28c0.58-1.2,1.72-2.28,3.75-2.28c1.77,0,3.61,1.01,3.61,4.21v7.57h-1.15v-7.43c0-1.54-0.55-3.22-2.69-3.22
		c-2.23,0-3.24,1.79-3.24,4.02v6.62h-1.13v-7.4c0-1.68-0.51-3.24-2.62-3.24c-2.23,0-3.31,1.98-3.31,4.32v6.32h-1.15V196.58z"/>
	<path d="M69.05,203.41v6.3H67.9v-13.27c0-0.94,0-1.96-0.02-2.83H69c0.05,0.44,0.05,1.13,0.05,2.07c0.71-1.38,1.98-2.35,4.05-2.35
		c2.71,0,4.6,2.28,4.6,5.73c0,4.14-2.21,6.32-4.99,6.32C70.68,205.39,69.62,204.49,69.05,203.41z M76.47,199.11
		c0-2.67-1.29-4.67-3.56-4.67c-2.78,0-3.93,1.75-3.93,4.88c0,3.08,0.9,4.99,3.77,4.99C75.14,204.31,76.47,202.29,76.47,199.11z"/>
	<path d="M80.96,199.5c0.02,2.97,1.52,4.81,3.73,4.81c2.16,0,2.9-1.22,3.31-2.16h1.17c-0.48,1.52-1.7,3.24-4.53,3.24
		c-3.5,0-4.85-3.01-4.85-5.93c0-3.29,1.63-6.12,4.99-6.12c3.54,0,4.67,3.06,4.67,5.22c0,0.32,0,0.64-0.02,0.94H80.96z M88.25,198.49
		c-0.02-2.28-1.26-4.07-3.52-4.07c-2.37,0-3.45,1.66-3.7,4.07H88.25z"/>
	<path d="M90.71,193.62h2.14v-3.59H94v3.59h2.74v1.08H94v7.47c0,1.29,0.28,2.02,1.38,2.02c0.34,0,0.83-0.02,1.2-0.14v1.01
		c-0.39,0.16-0.94,0.21-1.43,0.21c-1.47,0-2.3-0.74-2.3-2.58v-8h-2.14V193.62z"/>
	<path d="M99.08,188.17h1.15v2.23h-1.15V188.17z M99.08,193.62h1.15v11.5h-1.15V193.62z"/>
	<path d="M102.44,193.62h2.14v-3.59h1.15v3.59h2.74v1.08h-2.74v7.47c0,1.29,0.28,2.02,1.38,2.02c0.34,0,0.83-0.02,1.2-0.14v1.01
		c-0.39,0.16-0.94,0.21-1.43,0.21c-1.47,0-2.3-0.74-2.3-2.58v-8h-2.14V193.62z"/>
	<path d="M119.99,199.34c0,3.2-1.77,6.05-5.2,6.05c-3.1,0-5.04-2.55-5.04-6.03c0-3.29,1.82-6.02,5.15-6.02
		C117.97,193.34,119.99,195.73,119.99,199.34z M110.98,199.36c0,2.74,1.47,4.94,3.91,4.94c2.48,0,3.89-2.05,3.89-4.94
		c0-2.71-1.38-4.94-3.93-4.94C112.22,194.42,110.98,196.61,110.98,199.36z"/>
	<path d="M122.84,196.74c0-1.93-0.02-2.76-0.02-3.13h1.13c0.02,0.37,0.05,1.1,0.05,2.58c0.67-1.72,2.14-2.76,4-2.85v1.24
		c-2.39,0.16-4,1.82-4,4.55v5.98h-1.15V196.74z"/>
	<path d="M138.3,199.55l-2.05,5.56h-1.27l5.91-16.1h1.47l6.16,16.1h-1.36l-2.09-5.56H138.3z M144.67,198.4
		c-1.79-4.78-2.71-7.08-3.04-8.16h-0.02c-0.39,1.22-1.43,4.07-2.87,8.16H144.67z"/>
	<path d="M151.02,196.51c0-1.01,0-1.98-0.02-2.9h1.13c0.05,0.37,0.07,1.86,0.05,2.18c0.51-1.17,1.45-2.46,3.82-2.46
		c2.05,0,3.86,1.15,3.86,4.32v7.45h-1.15v-7.27c0-2.05-0.85-3.38-2.85-3.38c-2.74,0-3.68,2.28-3.68,4.78v5.86h-1.15V196.51z"/>
	<path d="M171.37,202.93c0,1.01,0.09,1.82,0.16,2.18h-1.1c-0.09-0.28-0.16-0.78-0.21-1.77c-0.39,0.85-1.4,2.05-3.77,2.05
		c-2.67,0-3.82-1.72-3.82-3.45c0-2.53,1.95-3.68,5.4-3.68c0.97,0,1.72,0,2.18,0v-1.17c0-1.15-0.34-2.69-2.97-2.69
		c-2.32,0-2.67,1.22-2.92,2.16h-1.15c0.14-1.27,0.92-3.22,4.09-3.22c2.62,0,4.09,1.1,4.09,3.63V202.93z M170.24,199.25
		c-0.44,0-1.5,0-2.25,0c-2.55,0-4.14,0.67-4.14,2.64c0,1.45,1.03,2.44,2.64,2.44c3.29,0,3.75-2.18,3.75-4.67V199.25z"/>
	<path d="M175.17,205.11v-16.95h1.15v16.95H175.17z"/>
	<path d="M180.02,193.62c2.32,6.58,3.33,9.29,3.72,10.53h0.02c0.46-1.4,1.38-4.07,3.61-10.53h1.2l-4.32,12.16
		c-1.22,3.4-2.05,4.16-4.12,4.16c-0.41,0-0.69-0.02-1.06-0.07v-1.15c0.35,0.05,0.67,0.07,1.04,0.07c1.66,0,2.18-0.8,3.04-3.17
		l-4.39-12H180.02z"/>
	<path d="M191.1,201.94c0.39,1.49,1.45,2.39,3.26,2.39c2.05,0,2.88-0.94,2.88-2.23c0-1.31-0.55-1.95-3.13-2.58
		c-2.97-0.71-3.7-1.61-3.7-3.13c0-1.59,1.2-3.06,3.79-3.06c2.6,0,3.84,1.59,4.02,3.22h-1.15c-0.21-0.97-0.97-2.16-2.92-2.16
		c-2,0-2.58,0.99-2.58,1.91c0,1.06,0.55,1.59,2.83,2.14c3.24,0.78,4.05,1.84,4.05,3.56c0,2.09-1.7,3.38-4.12,3.38
		c-2.62,0-4.09-1.38-4.42-3.45H191.1z"/>
	<path d="M201.32,188.17h1.15v2.23h-1.15V188.17z M201.32,193.62h1.15v11.5h-1.15V193.62z"/>
	<path d="M206.12,201.94c0.39,1.49,1.45,2.39,3.27,2.39c2.05,0,2.87-0.94,2.87-2.23c0-1.31-0.55-1.95-3.13-2.58
		c-2.97-0.71-3.7-1.61-3.7-3.13c0-1.59,1.2-3.06,3.79-3.06c2.6,0,3.84,1.59,4.02,3.22h-1.15c-0.21-0.97-0.97-2.16-2.92-2.16
		c-2,0-2.58,0.99-2.58,1.91c0,1.06,0.55,1.59,2.83,2.14c3.24,0.78,4.05,1.84,4.05,3.56c0,2.09-1.7,3.38-4.12,3.38
		c-2.62,0-4.09-1.38-4.42-3.45H206.12z"/>
</g>
<g>
	<linearGradient id="SVGID_1_" gradientUnits="userSpaceOnUse" x1="81.9826" y1="95.365" x2="151.9665" y2="95.365">
		<stop  offset="0" style="stop-color:#2A3990"/>
		<stop  offset="8.744050e-08" style="stop-color:#0061AA"/>
		<stop  offset="2.770450e-07" style="stop-color:#00AEEF"/>
		<stop  offset="0.0912" style="stop-color:#00A9EB"/>
		<stop  offset="0.224" style="stop-color:#00A0E2"/>
		<stop  offset="0.3823" style="stop-color:#0092D4"/>
		<stop  offset="0.5602" style="stop-color:#007DC1"/>
		<stop  offset="0.7544" style="stop-color:#0063AB"/>
		<stop  offset="0.9594" style="stop-color:#224194"/>
		<stop  offset="1" style="stop-color:#2B3990"/>
	</linearGradient>
	<path class="st0" d="M116.96,147.52c-1.11-1.91-2.11-3.65-3.12-5.39c-9.06-15.62-18.14-31.22-27.16-46.86
		c-12.04-20.85,0.25-46.93,23.6-51.39c20.04-3.83,37.34,9.2,41,27.51c1.74,8.7,0.11,16.82-4.32,24.45
		c-9.76,16.81-19.51,33.63-29.26,50.44C117.5,146.62,117.29,146.96,116.96,147.52z M116.95,94.06c9.23-0.08,16.3-7.25,16.23-16.45
		c-0.07-8.52-7.53-15.78-16.17-15.72c-9.21,0.06-16.28,7.31-16.2,16.61C100.87,86.99,108.29,94.14,116.95,94.06z"/>
	
		<linearGradient id="SVGID_00000005984013258630454340000001987306565869837228_" gradientUnits="userSpaceOnUse" x1="59.1172" y1="149.5255" x2="174.8828" y2="149.5255">
		<stop  offset="0" style="stop-color:#2A3990"/>
		<stop  offset="8.744050e-08" style="stop-color:#0061AA"/>
		<stop  offset="2.770450e-07" style="stop-color:#00AEEF"/>
		<stop  offset="0.0912" style="stop-color:#00A9EB"/>
		<stop  offset="0.224" style="stop-color:#00A0E2"/>
		<stop  offset="0.3823" style="stop-color:#0092D4"/>
		<stop  offset="0.5602" style="stop-color:#007DC1"/>
		<stop  offset="0.7544" style="stop-color:#0063AB"/>
		<stop  offset="0.9594" style="stop-color:#224194"/>
		<stop  offset="1" style="stop-color:#2B3990"/>
	</linearGradient>
	<path style="fill:url(#SVGID_00000005984013258630454340000001987306565869837228_);" d="M114.31,168.25
		c15.09-0.24,27.15-1.64,38.62-6.39c3.61-1.49,7.02-3.33,9.93-5.97c1.84-1.67,3.46-3.55,3.87-6.11c0.48-3.03-0.98-5.38-2.97-7.44
		c-3.35-3.47-7.55-5.61-11.95-7.37c-5.35-2.14-10.91-3.51-16.61-4.37c-0.35-0.05-0.71-0.11-1.05-0.2c-1.03-0.29-1.48-1.17-0.97-2.12
		c0.84-1.57,1.71-3.14,2.7-4.61c0.28-0.42,1.09-0.8,1.58-0.71c9.95,1.71,19.56,4.44,27.88,10.43c2.31,1.67,4.46,3.75,6.2,6.01
		c4.62,5.99,4.41,12.98-0.26,18.95c-3.51,4.49-8.16,7.47-13.23,9.85c-7.55,3.55-15.55,5.54-23.78,6.73
		c-7.09,1.03-14.21,1.38-21.35,1.14c-11.75-0.4-23.26-2.15-34.21-6.64c-5.28-2.16-10.22-4.9-14.25-9.04
		c-2.48-2.54-4.36-5.43-5.05-8.98c-0.68-3.48-0.11-6.77,1.6-9.87c2.56-4.64,6.54-7.8,11.02-10.4c7-4.06,14.64-6.33,22.53-7.87
		c3.43-0.67,2.94-0.66,4.6,2.15c0.48,0.82,0.97,1.64,1.42,2.47c0.77,1.41,0.39,2.3-1.18,2.57c-5.15,0.89-10.26,1.97-15.19,3.75
		c-4.42,1.59-8.66,3.53-12.29,6.58c-1.05,0.89-2.04,1.89-2.88,2.98c-2.61,3.37-2.52,6.76,0.14,10.1c2.31,2.88,5.34,4.83,8.57,6.47
		c6.74,3.43,13.95,5.42,21.39,6.43C105.08,167.58,111.1,167.95,114.31,168.25z"/>
</g>
<rect x="89.33" y="27.52" class="st24" width="13.7" height="3.36"/>
</svg>
