<?xml version="1.0" encoding="utf-8"?>
<!-- Generator: Adobe Illustrator 27.0.0, SVG Export Plug-In . SVG Version: 6.00 Build 0)  -->
<svg version="1.1" id="Layer_1" xmlns="http://www.w3.org/2000/svg" xmlns:xlink="http://www.w3.org/1999/xlink" x="0px" y="0px"
	 viewBox="0 0 234 234" style="enable-background:new 0 0 234 234;" xml:space="preserve">
<style type="text/css">
	.st0{fill:url(#SVGID_1_);}
	.st1{fill:url(#SVGID_00000001655165431177940120000012555281697228141958_);}
	.st2{fill:url(#SVGID_00000031903779140950493030000012992275109989208253_);}
	.st3{fill:url(#SVGID_00000115510237856994070100000013079068534998256296_);}
	.st4{fill:url(#SVGID_00000071557049610377505650000009431191095908430766_);}
	.st5{fill:url(#SVGID_00000137123415160326946780000009518170726573035452_);}
	.st6{fill:url(#SVGID_00000154401619124235797240000007980223754729647515_);}
	.st7{fill:url(#SVGID_00000168076395914489892790000001075648749785876413_);}
	.st8{fill:url(#SVGID_00000003809178384722641780000004114796560956414615_);}
	.st9{fill:url(#SVGID_00000067202559199121695110000003574909613605751696_);}
	.st10{fill:url(#SVGID_00000158726149959472716290000010857421728237933232_);}
	.st11{fill:url(#SVGID_00000144299297935690567540000018391109312917800067_);}
	.st12{fill:url(#SVGID_00000000917097611293634960000000781506206799141024_);}
	.st13{fill:url(#SVGID_00000083087578977338379400000004886088614157380787_);}
	.st14{fill:url(#SVGID_00000024696617432626323880000008644734654928684473_);}
	.st15{fill:url(#SVGID_00000147936264408748722140000005252486324898445737_);}
	.st16{fill:url(#SVGID_00000091730895510048582810000000105892920614155699_);}
	.st17{fill:url(#SVGID_00000167383932010302823440000011163533762445167784_);}
	.st18{fill:url(#SVGID_00000105392054668529643670000016541647169523779464_);}
	.st19{fill:url(#SVGID_00000075125694857430070920000004976102463477193657_);}
	.st20{fill:url(#SVGID_00000052820078443985298150000011653809470491471762_);}
	.st21{fill:url(#SVGID_00000023965611824071511070000005328347668632323721_);}
	.st22{fill:url(#SVGID_00000110440782205170590240000007822321646999287198_);}
	.st23{fill:url(#SVGID_00000130610268847135651360000003965939087143543209_);}
	.st24{fill:url(#SVGID_00000111895054875762422250000012630004624629248915_);}
	.st25{fill:#FFFFFF;}
	.st26{fill:url(#SVGID_00000074401149082205613950000011753768686209142719_);}
	.st27{fill:url(#SVGID_00000032639706831163676330000015072752125529178522_);}
	.st28{fill:url(#SVGID_00000044168038338378824000000006448019641670207115_);}
</style>
<g>
	<g>
		<path d="M16.96,189.21h9.75v1.15h-8.51v6.07h7.98v1.15h-7.98v7.73h-1.24V189.21z"/>
		<path d="M29.2,188.36h1.15v2.23H29.2V188.36z M29.2,193.81h1.15v11.5H29.2V193.81z"/>
		<path d="M34.12,196.71c0-1.01,0-1.98-0.02-2.9h1.13c0.05,0.37,0.07,1.86,0.05,2.18c0.51-1.17,1.45-2.46,3.82-2.46
			c2.05,0,3.86,1.15,3.86,4.32v7.45H41.8v-7.27c0-2.05-0.85-3.38-2.85-3.38c-2.74,0-3.68,2.28-3.68,4.78v5.86h-1.15V196.71z"/>
		<path d="M54.61,203.13c0,1.01,0.09,1.82,0.16,2.18h-1.1c-0.09-0.28-0.16-0.78-0.21-1.77c-0.39,0.85-1.4,2.05-3.77,2.05
			c-2.67,0-3.82-1.72-3.82-3.45c0-2.53,1.95-3.68,5.4-3.68c0.97,0,1.72,0,2.18,0v-1.17c0-1.15-0.34-2.69-2.97-2.69
			c-2.32,0-2.67,1.22-2.92,2.16h-1.15c0.14-1.27,0.92-3.22,4.09-3.22c2.62,0,4.09,1.1,4.09,3.63V203.13z M53.49,199.45
			c-0.44,0-1.5,0-2.25,0c-2.55,0-4.14,0.67-4.14,2.64c0,1.45,1.03,2.44,2.64,2.44c3.29,0,3.75-2.18,3.75-4.67V199.45z"/>
		<path d="M58.41,196.71c0-1.01,0-1.98-0.02-2.9h1.13c0.05,0.37,0.07,1.86,0.05,2.18c0.51-1.17,1.45-2.46,3.82-2.46
			c2.05,0,3.86,1.15,3.86,4.32v7.45h-1.15v-7.27c0-2.05-0.85-3.38-2.85-3.38c-2.74,0-3.68,2.28-3.68,4.78v5.86h-1.15V196.71z"/>
		<path d="M79.48,201.93c-0.55,2.02-1.89,3.66-4.46,3.66c-2.88,0-4.92-2.14-4.92-5.98c0-3.15,1.68-6.07,5.06-6.07
			c2.92,0,4.12,2.07,4.32,3.68H78.3c-0.34-1.33-1.22-2.6-3.17-2.6c-2.44,0-3.82,2.07-3.82,4.94c0,2.74,1.29,4.94,3.7,4.94
			c1.68,0,2.69-0.85,3.29-2.58H79.48z"/>
		<path d="M82.15,188.36h1.15v2.23h-1.15V188.36z M82.15,193.81h1.15v11.5h-1.15V193.81z"/>
		<path d="M94.95,203.13c0,1.01,0.09,1.82,0.16,2.18h-1.1c-0.09-0.28-0.16-0.78-0.21-1.77c-0.39,0.85-1.4,2.05-3.77,2.05
			c-2.67,0-3.82-1.72-3.82-3.45c0-2.53,1.96-3.68,5.4-3.68c0.97,0,1.72,0,2.18,0v-1.17c0-1.15-0.34-2.69-2.97-2.69
			c-2.32,0-2.67,1.22-2.92,2.16h-1.15c0.14-1.27,0.92-3.22,4.09-3.22c2.62,0,4.09,1.1,4.09,3.63V203.13z M93.83,199.45
			c-0.44,0-1.49,0-2.25,0c-2.55,0-4.14,0.67-4.14,2.64c0,1.45,1.04,2.44,2.64,2.44c3.29,0,3.75-2.18,3.75-4.67V199.45z"/>
		<path d="M98.75,205.31v-16.95h1.15v16.95H98.75z"/>
		<path d="M110.14,200.99c0.48,2.14,1.91,3.4,4.55,3.4c2.94,0,4.07-1.47,4.07-3.22c0-1.82-0.8-2.94-4.35-3.82
			c-3.4-0.85-4.88-1.96-4.88-4.28c0-2.12,1.54-4.09,4.99-4.09c3.54,0,5.04,2.16,5.24,4.12h-1.29c-0.37-1.72-1.49-2.97-4.02-2.97
			c-2.32,0-3.59,1.08-3.59,2.87c0,1.77,1.06,2.46,4.02,3.2c4.53,1.13,5.2,2.94,5.2,4.88c0,2.37-1.72,4.42-5.45,4.42
			c-4.02,0-5.5-2.34-5.79-4.51H110.14z"/>
		<path d="M121.43,193.81h2.14v-3.59h1.15v3.59h2.74v1.08h-2.74v7.47c0,1.29,0.28,2.02,1.38,2.02c0.34,0,0.83-0.02,1.2-0.14v1.01
			c-0.39,0.16-0.94,0.21-1.43,0.21c-1.47,0-2.3-0.74-2.3-2.58v-8h-2.14V193.81z"/>
		<path d="M137.69,203.13c0,1.01,0.09,1.82,0.16,2.18h-1.1c-0.09-0.28-0.16-0.78-0.21-1.77c-0.39,0.85-1.4,2.05-3.77,2.05
			c-2.67,0-3.82-1.72-3.82-3.45c0-2.53,1.95-3.68,5.4-3.68c0.97,0,1.72,0,2.18,0v-1.17c0-1.15-0.34-2.69-2.97-2.69
			c-2.32,0-2.67,1.22-2.92,2.16h-1.15c0.14-1.27,0.92-3.22,4.09-3.22c2.62,0,4.09,1.1,4.09,3.63V203.13z M136.56,199.45
			c-0.44,0-1.5,0-2.25,0c-2.55,0-4.14,0.67-4.14,2.64c0,1.45,1.03,2.44,2.64,2.44c3.29,0,3.75-2.18,3.75-4.67V199.45z"/>
		<path d="M139.76,193.81h2.14v-3.59h1.15v3.59h2.74v1.08h-2.74v7.47c0,1.29,0.28,2.02,1.38,2.02c0.34,0,0.83-0.02,1.2-0.14v1.01
			c-0.39,0.16-0.94,0.21-1.43,0.21c-1.47,0-2.3-0.74-2.3-2.58v-8h-2.14V193.81z"/>
		<path d="M148.38,199.7c0.02,2.97,1.52,4.81,3.72,4.81c2.16,0,2.9-1.22,3.31-2.16h1.17c-0.48,1.52-1.7,3.24-4.53,3.24
			c-3.5,0-4.85-3.01-4.85-5.93c0-3.29,1.63-6.12,4.99-6.12c3.54,0,4.67,3.06,4.67,5.22c0,0.32,0,0.64-0.02,0.94H148.38z
			 M155.67,198.69c-0.02-2.28-1.26-4.07-3.52-4.07c-2.37,0-3.45,1.66-3.7,4.07H155.67z"/>
		<path d="M159.68,196.78c0-0.99,0-2.07-0.02-2.97h1.13c0.02,0.39,0.07,1.38,0.05,2.05c0.48-1.15,1.54-2.32,3.45-2.32
			c1.61,0,2.88,0.8,3.33,2.28c0.57-1.2,1.72-2.28,3.75-2.28c1.77,0,3.61,1.01,3.61,4.21v7.57h-1.15v-7.43
			c0-1.54-0.55-3.22-2.69-3.22c-2.23,0-3.24,1.79-3.24,4.02v6.62h-1.13v-7.4c0-1.68-0.51-3.24-2.62-3.24
			c-2.23,0-3.31,1.98-3.31,4.32v6.32h-1.15V196.78z"/>
		<path d="M179,199.7c0.02,2.97,1.52,4.81,3.72,4.81c2.16,0,2.9-1.22,3.31-2.16h1.17c-0.48,1.52-1.7,3.24-4.53,3.24
			c-3.5,0-4.85-3.01-4.85-5.93c0-3.29,1.63-6.12,4.99-6.12c3.54,0,4.67,3.06,4.67,5.22c0,0.32,0,0.64-0.02,0.94H179z M186.28,198.69
			c-0.02-2.28-1.26-4.07-3.52-4.07c-2.37,0-3.45,1.66-3.7,4.07H186.28z"/>
		<path d="M190.29,196.71c0-1.01,0-1.98-0.02-2.9h1.13c0.05,0.37,0.07,1.86,0.05,2.18c0.51-1.17,1.45-2.46,3.82-2.46
			c2.05,0,3.86,1.15,3.86,4.32v7.45h-1.15v-7.27c0-2.05-0.85-3.38-2.85-3.38c-2.74,0-3.68,2.28-3.68,4.78v5.86h-1.15V196.71z"/>
		<path d="M201.17,193.81h2.14v-3.59h1.15v3.59h2.74v1.08h-2.74v7.47c0,1.29,0.28,2.02,1.38,2.02c0.34,0,0.83-0.02,1.2-0.14v1.01
			c-0.39,0.16-0.94,0.21-1.43,0.21c-1.47,0-2.3-0.74-2.3-2.58v-8h-2.14V193.81z"/>
		<path d="M209.54,202.14c0.39,1.49,1.45,2.39,3.27,2.39c2.05,0,2.87-0.94,2.87-2.23c0-1.31-0.55-1.95-3.13-2.58
			c-2.97-0.71-3.7-1.61-3.7-3.13c0-1.59,1.2-3.06,3.79-3.06c2.6,0,3.84,1.59,4.02,3.22h-1.15c-0.21-0.97-0.97-2.16-2.92-2.16
			c-2,0-2.58,0.99-2.58,1.91c0,1.06,0.55,1.59,2.83,2.14c3.24,0.78,4.05,1.84,4.05,3.56c0,2.09-1.7,3.38-4.12,3.38
			c-2.62,0-4.09-1.38-4.42-3.45H209.54z"/>
	</g>
</g>
<g>
	<linearGradient id="SVGID_1_" gradientUnits="userSpaceOnUse" x1="55.8" y1="108.262" x2="178.2" y2="108.262">
		<stop  offset="0" style="stop-color:#2A3990"/>
		<stop  offset="8.744050e-08" style="stop-color:#0061AA"/>
		<stop  offset="2.770450e-07" style="stop-color:#00AEEF"/>
		<stop  offset="0.0912" style="stop-color:#00A9EB"/>
		<stop  offset="0.224" style="stop-color:#00A0E2"/>
		<stop  offset="0.3823" style="stop-color:#0092D4"/>
		<stop  offset="0.5602" style="stop-color:#007DC1"/>
		<stop  offset="0.7544" style="stop-color:#0063AB"/>
		<stop  offset="0.9594" style="stop-color:#224194"/>
		<stop  offset="1" style="stop-color:#2B3990"/>
	</linearGradient>
	<path class="st0" d="M117.09,169.46c-33.66-0.01-60.8-26.91-61.28-60.25c-0.5-34.4,26.96-61.66,60.22-62.14
		c34.31-0.5,61.77,26.9,62.17,60.4C178.61,141.72,151.06,169.37,117.09,169.46z M116.8,142.16c1.22,0,2.44,0.01,3.66,0
		c0.7-0.01,1.05-0.33,1.15-1.03c0.02-0.15,0.03-0.29,0.03-0.44c0-1.29,0-2.57,0-3.86c0-0.87,0.24-1.17,1.1-1.34
		c1.95-0.36,3.82-0.95,5.55-1.92c2.73-1.52,4.82-3.64,6.07-6.52c1.4-3.24,1.59-6.61,0.98-10.04c-0.5-2.83-1.83-5.2-4.07-7.04
		c-1.52-1.25-3.19-2.26-4.92-3.16c-2.63-1.37-5.4-2.42-8.14-3.52c-2.25-0.9-4.47-1.89-6.41-3.38c-1.01-0.78-1.92-1.65-2.35-2.89
		c-0.79-2.24,0.44-4.92,2.68-5.97c1.5-0.7,3.08-0.87,4.7-0.79c2.34,0.12,4.39,0.92,6.04,2.62c0.9,0.93,1.61,2,2.22,3.13
		c0.34,0.63,0.82,0.82,1.48,0.58c2.3-0.83,4.6-1.68,6.9-2.53c0.62-0.23,0.88-0.83,0.62-1.44c-1.31-3.11-3.28-5.69-6.15-7.53
		c-1.64-1.05-3.42-1.76-5.31-2.22c-0.79-0.2-1-0.48-1.01-1.3c0-1.12,0-2.25,0-3.37c0-0.84,0.01-1.69-0.01-2.53
		c-0.03-0.97-0.41-1.32-1.37-1.32c-2.26,0-4.53,0-6.79,0c-1.08,0-1.43,0.35-1.43,1.45c0,1.97,0,3.94,0,5.9
		c0,0.69-0.24,1.01-0.9,1.18c-1.46,0.38-2.86,0.89-4.18,1.62c-2.46,1.38-4.47,3.21-5.78,5.75c-1.39,2.69-1.69,5.56-1.27,8.52
		c0.53,3.73,2.33,6.71,5.42,8.89c1.67,1.18,3.51,2.07,5.39,2.83c2.79,1.13,5.61,2.18,8.42,3.27c1.56,0.61,3.09,1.29,4.47,2.26
		c0.94,0.66,1.7,1.48,2.12,2.56c1.01,2.65,0.3,6.23-3.26,7.89c-1.64,0.76-3.38,0.95-5.17,0.92c-2.66-0.05-4.92-1-6.81-2.88
		c-1.23-1.22-2.17-2.64-3-4.15c-0.34-0.62-0.86-0.8-1.52-0.53c-0.51,0.21-1.01,0.44-1.51,0.66c-1.79,0.79-3.57,1.59-5.36,2.39
		c-0.7,0.31-0.91,0.89-0.58,1.58c0.23,0.48,0.48,0.96,0.74,1.43c2.63,4.73,6.57,7.77,11.79,9.18c0.76,0.2,1,0.5,1.01,1.27
		c0,1.51,0,3.03,0.01,4.54c0,0.86,0.41,1.26,1.26,1.26C114.47,142.16,115.63,142.16,116.8,142.16z"/>
</g>
<rect x="52.33" y="27.52" class="st25" width="23.32" height="5.71"/>
</svg>
