<?xml version="1.0" encoding="utf-8"?>
<!-- Generator: Adobe Illustrator 27.0.0, SVG Export Plug-In . SVG Version: 6.00 Build 0)  -->
<svg version="1.1" id="Layer_1" xmlns="http://www.w3.org/2000/svg" xmlns:xlink="http://www.w3.org/1999/xlink" x="0px" y="0px"
	 viewBox="0 0 172.8 172.8" style="enable-background:new 0 0 172.8 172.8;" xml:space="preserve">
<style type="text/css">
	.st0{fill:#FFFFFF;}
</style>
<g>
	<path class="st0" d="M114.69,106.43l0.02,0.02v-0.02c-0.21-0.28-0.35-0.54-0.45-0.75C114.36,105.89,114.5,106.14,114.69,106.43z
		 M114.34,104.19c0.14-0.28,0.35-0.64,0.66-1.06C114.69,103.56,114.48,103.89,114.34,104.19z"/>
	<path class="st0" d="M15.68,26.44c-0.49-0.6-0.95-1.13-1.37-1.69c-0.84-1.12-0.51-2.52,0.78-3.04c3.82-1.54,7.65-3.05,11.49-4.54
		c0.83-0.32,1.65-0.18,2.24,0.56c0.57,0.73,0.58,1.53,0.11,2.31c-2.12,3.47-4.23,6.95-6.39,10.4c-0.82,1.32-2.28,1.37-3.31,0.2
		c-0.3-0.34-0.59-0.7-0.95-1.12c-1.36,1.64-2.53,3.34-3.65,5.08c-5.1,7.92-8.49,16.53-9.81,25.84C1.89,81,7.16,99.28,20.87,114.92
		c10.13,11.56,22.93,18.61,38.02,21.44c6.27,1.17,12.59,1.32,18.94,0.65c4.51-0.48,8.92-1.4,13.24-2.78
		c0.23-0.07,0.47-0.15,0.71-0.19c1.08-0.19,2.05,0.38,2.31,1.34c0.28,1.03-0.22,2.01-1.33,2.39c-2.89,1.01-5.85,1.73-8.85,2.31
		c-5.86,1.12-11.79,1.49-17.74,1.09c-11.58-0.77-22.4-4.09-32.25-10.25C17.23,120.47,6.52,105.64,1.9,86.49
		c-1.63-6.77-2.1-13.66-1.6-20.61c1.04-14.5,6.07-27.47,15-38.92C15.41,26.82,15.51,26.66,15.68,26.44z"/>
	<path class="st0" d="M140.24,83.04c0.65,0.14,1.25,0.23,1.83,0.4c1.28,0.37,1.89,1.56,1.26,2.73c-1.96,3.7-3.97,7.37-5.99,11.04
		c-0.41,0.74-1.12,1.07-1.94,0.92c-0.84-0.15-1.45-0.66-1.59-1.56c-0.49-3.2-0.98-6.4-1.46-9.61c-0.14-0.91-0.31-1.81-0.37-2.72
		c-0.11-1.57,0.95-2.47,2.49-2.18c0.6,0.11,1.2,0.21,1.84,0.33c0.45-1.8,0.62-3.59,0.78-5.38c0.39-4.22,0.41-8.45,0-12.66
		c-0.73-7.57-2.6-14.87-5.93-21.72c-9.54-19.57-24.91-31.99-46.11-37.04c-6.93-1.65-13.98-1.94-21.07-1.23
		c-6.18,0.62-12.15,2.06-17.91,4.36c-1.69,0.67-3.05-0.57-2.9-1.89c0.1-0.9,0.63-1.4,1.44-1.72c4.26-1.71,8.66-2.96,13.17-3.81
		c5.41-1.02,10.88-1.36,16.36-1.09C84.42,0.7,94.2,3.23,103.27,8.11c18.36,9.87,30.35,24.9,35.8,45.04
		c2.06,7.63,2.62,15.42,1.98,23.3C140.87,78.64,140.55,80.81,140.24,83.04z"/>
	<path class="st0" d="M114.69,106.43l0.02,0.02v-0.02c-0.21-0.28-0.35-0.54-0.45-0.75C114.36,105.89,114.5,106.14,114.69,106.43z
		 M114.34,104.19c0.14-0.28,0.35-0.64,0.66-1.06C114.69,103.56,114.48,103.89,114.34,104.19z"/>
	<path class="st0" d="M170.76,151.37c-1.81-1.84-3.65-3.65-5.46-5.46c-10.05-10.07-20.12-20.12-30.16-30.16
		c-1.81-1.81-3.93-2.45-6.38-1.58c-0.52,0.16-0.75-0.02-1.08-0.33c-2.82-2.85-5.67-5.69-8.49-8.52c-0.16-0.16-0.4-0.31-0.45-0.56
		c19.6-27.84,10.94-63.69-13.01-81.34C82.22,6.12,49.21,8.38,28.38,29.86c-20.4,21.06-22.07,54.09-3.84,77.29
		c18.33,23.32,53.22,30.47,80.28,11.51c3.11,3.11,6.16,6.19,9.25,9.27c0.26,0.24,0.21,0.45,0.09,0.73
		c-0.85,2.47-0.28,4.61,1.55,6.47c11.86,11.86,23.74,23.74,35.62,35.6c2.61,2.61,6.12,2.61,8.73,0.02
		c3.55-3.55,7.11-7.11,10.66-10.66C173.35,157.49,173.35,153.98,170.76,151.37z M85.61,115.34c-4.02,1.36-8.16,2.14-12.4,2.33
		c-11.91,0.59-22.47-2.87-31.81-10.16c-1.55-1.22-2.96-2.56-4.35-3.98c-0.52-0.52-1.06-1.01-1.58-1.51c-1.01-1.34-2.07-2.66-3.04-4
		c-4.45-6.16-7.27-13.01-8.31-20.49c-1.65-11.88,0.73-22.99,7.46-32.92c7.74-11.46,18.57-18.35,32.24-20.45
		c9.08-1.41,17.93-0.19,26.35,3.72c10.47,4.85,18.16,12.49,23.15,22.89c2.28,4.75,3.62,9.79,4.19,15.06c0.97,9.46-0.8,18.4-5.2,26.8
		c-1.95,3.76-4.45,7.18-7.36,10.28C99.54,108.69,93.07,112.8,85.61,115.34z M116.83,124.9c-2.8-2.8-5.72-5.76-8.68-8.75
		c0.94-0.85,2.02-1.81,3.08-2.82c1.18-1.11,1.25-1.88,0.33-3.2c1.22-1.08,2.35-2.19,3.15-3.67l-0.02-0.02
		c-0.09-0.14-0.19-0.28-0.23-0.4c0.07,0.12,0.14,0.26,0.26,0.4v0.02c3.44,3.51,6.85,6.96,10.21,10.4
		C122.27,119.49,119.54,122.21,116.83,124.9z M161.91,152.99c-0.59-0.07-0.99-0.42-1.39-0.82c-6.16-6.16-12.33-12.33-18.49-18.49
		c-3.04-3.04-6.07-6.07-9.11-9.08c-0.75-0.75-1.25-1.55-0.8-2.59c0.45-1.04,1.36-1.22,2.38-1.15h0.02c0.07,0.05,0.14,0.09,0.21,0.12
		c0.35,0.31,0.71,0.61,1.04,0.94l27.48,27.48c0.26,0.26,0.49,0.54,0.73,0.82c0.05,0.07,0.09,0.14,0.14,0.21
		C164.12,152.24,163.35,153.11,161.91,152.99z"/>
	<path class="st0" d="M134.74,120.98c-0.07-0.04-0.15-0.08-0.22-0.13C134.6,120.89,134.67,120.93,134.74,120.98z"/>
	<path class="st0" d="M53.44,90.88h-8.03c-1.63,0-2.97-1.34-2.97-2.97V57.5c0-1.63,1.34-2.97,2.97-2.97h8.03
		c1.63,0,2.97,1.34,2.97,2.97v30.41C56.41,89.54,55.08,90.88,53.44,90.88z"/>
	<path class="st0" d="M74.52,91.11h-8.03c-1.63,0-2.97-1.34-2.97-2.97V69.33c0-1.63,1.34-2.97,2.97-2.97h8.03
		c1.63,0,2.97,1.34,2.97,2.97v18.81C77.49,89.77,76.15,91.11,74.52,91.11z"/>
	<path class="st0" d="M95.6,90.88h-8.03c-1.63,0-2.97-1.34-2.97-2.97V48.4c0-1.63,1.34-2.97,2.97-2.97h8.03
		c1.63,0,2.97,1.34,2.97,2.97v39.51C98.56,89.54,97.23,90.88,95.6,90.88z"/>
</g>
</svg>
