<?xml version="1.0" encoding="utf-8"?>
<!-- Generator: Adobe Illustrator 27.0.0, SVG Export Plug-In . SVG Version: 6.00 Build 0)  -->
<svg version="1.1" id="Layer_1" xmlns="http://www.w3.org/2000/svg" xmlns:xlink="http://www.w3.org/1999/xlink" x="0px" y="0px"
	 viewBox="0 0 234 234" style="enable-background:new 0 0 234 234;" xml:space="preserve">
<style type="text/css">
	.st0{fill:url(#SVGID_1_);}
	.st1{fill:url(#SVGID_00000158717364289121131640000009798879008010829739_);}
	.st2{fill:url(#SVGID_00000014629247958059812450000007861061863278656391_);}
	.st3{fill:url(#SVGID_00000165200279241969540880000015680466660893441976_);}
	.st4{fill:url(#SVGID_00000132785760622230098840000009534349613905682110_);}
	.st5{fill:url(#SVGID_00000081643516725945175810000001605390713942890901_);}
	.st6{fill:url(#SVGID_00000150090812497916024250000016711422918848769685_);}
	.st7{fill:url(#SVGID_00000162345189244844018350000003570715223593330347_);}
	.st8{fill:url(#SVGID_00000034069240508256241360000004468689523392586133_);}
	.st9{fill:url(#SVGID_00000126315103977833162360000014263310211157509283_);}
	.st10{fill:url(#SVGID_00000085238191217680829670000014843415033148041857_);}
	.st11{fill:url(#SVGID_00000087400738341278319990000016287154762834367876_);}
	.st12{fill:url(#SVGID_00000029762028896879241020000001537233044519011255_);}
	.st13{fill:url(#SVGID_00000085945549227803878860000012195264228490949020_);}
	.st14{fill:url(#SVGID_00000069362993756892033540000012856387960110249867_);}
	.st15{fill:url(#SVGID_00000034053029880675624490000007433308738399771008_);}
	.st16{fill:url(#SVGID_00000133519926846767711540000002893282733657552794_);}
	.st17{fill:url(#SVGID_00000156576854213323305520000002268623986518805430_);}
	.st18{fill:url(#SVGID_00000139996780938856344700000002342937550804879799_);}
	.st19{fill:url(#SVGID_00000010277701872430420520000004001431396798536100_);}
	.st20{fill:url(#SVGID_00000083802441831446526650000006214060239819790484_);}
	.st21{fill:url(#SVGID_00000177458055472582362330000004607212463783539639_);}
	.st22{fill:url(#SVGID_00000157288348923110097370000016638897356742872973_);}
	.st23{fill:url(#SVGID_00000092422968254967605200000009514289313465103252_);}
	.st24{fill:#FFFFFF;}
</style>
<g>
	<path d="M39.73,189.21v16.1h-1.24v-16.1H39.73z"/>
	<path d="M43.68,196.7c0-1.01,0-1.98-0.02-2.9h1.13c0.05,0.37,0.07,1.86,0.05,2.18c0.51-1.17,1.45-2.46,3.82-2.46
		c2.05,0,3.86,1.15,3.86,4.32v7.45h-1.15v-7.27c0-2.05-0.85-3.38-2.85-3.38c-2.74,0-3.68,2.28-3.68,4.78v5.86h-1.15V196.7z"/>
	<path d="M65.17,188.36v13.64c0,1.1,0,2.16,0.02,3.31h-1.1c-0.05-0.28-0.07-1.36-0.07-1.93c-0.57,1.4-1.86,2.21-3.86,2.21
		c-2.99,0-4.78-2.44-4.78-5.89c0-3.54,1.95-6.16,5.08-6.16c2.3,0,3.22,0.99,3.56,1.72v-6.9H65.17z M56.59,199.65
		c0,3.15,1.63,4.85,3.61,4.85c3.04,0,3.86-2.09,3.86-5.22c0-2.97-0.71-4.67-3.66-4.67C58.13,194.61,56.59,196.43,56.59,199.65z"/>
	<path d="M77.54,201.95c0,1.13,0.02,2.92,0.02,3.36h-1.1c-0.05-0.3-0.07-1.06-0.07-2c-0.48,1.36-1.66,2.28-3.7,2.28
		c-1.66,0-3.77-0.64-3.77-4.16v-7.61h1.13v7.33c0,1.68,0.53,3.31,2.81,3.31c2.58,0,3.54-1.45,3.54-4.74v-5.91h1.15V201.95z"/>
	<path d="M81.18,202.13c0.39,1.49,1.45,2.39,3.26,2.39c2.05,0,2.88-0.94,2.88-2.23c0-1.31-0.55-1.95-3.13-2.58
		c-2.97-0.71-3.7-1.61-3.7-3.13c0-1.59,1.2-3.06,3.79-3.06c2.6,0,3.84,1.59,4.02,3.22h-1.15c-0.21-0.97-0.97-2.16-2.92-2.16
		c-2,0-2.58,0.99-2.58,1.91c0,1.06,0.55,1.59,2.83,2.14c3.24,0.78,4.05,1.84,4.05,3.56c0,2.09-1.7,3.38-4.12,3.38
		c-2.62,0-4.09-1.38-4.42-3.45H81.18z"/>
	<path d="M89.59,193.81h2.14v-3.59h1.15v3.59h2.74v1.08h-2.74v7.47c0,1.29,0.28,2.02,1.38,2.02c0.34,0,0.83-0.02,1.2-0.14v1.01
		c-0.39,0.16-0.94,0.21-1.43,0.21c-1.47,0-2.3-0.74-2.3-2.58v-8h-2.14V193.81z"/>
	<path d="M97.76,196.94c0-1.93-0.02-2.76-0.02-3.13h1.13c0.02,0.37,0.05,1.1,0.05,2.58c0.67-1.72,2.14-2.76,4-2.85v1.24
		c-2.39,0.16-4,1.82-4,4.55v5.98h-1.15V196.94z"/>
	<path d="M105.62,193.81c2.32,6.58,3.33,9.29,3.73,10.53h0.02c0.46-1.4,1.38-4.07,3.61-10.53h1.2l-4.32,12.16
		c-1.22,3.4-2.05,4.16-4.12,4.16c-0.41,0-0.69-0.02-1.06-0.07v-1.15c0.34,0.05,0.67,0.07,1.04,0.07c1.66,0,2.18-0.8,3.04-3.17
		l-4.39-12H105.62z"/>
	<path d="M124.39,199.74l-2.05,5.56h-1.27l5.91-16.1h1.47l6.16,16.1h-1.36l-2.09-5.56H124.39z M130.76,198.59
		c-1.79-4.78-2.71-7.08-3.04-8.16h-0.02c-0.39,1.22-1.43,4.07-2.87,8.16H130.76z"/>
	<path d="M137.11,196.7c0-1.01,0-1.98-0.02-2.9h1.13c0.05,0.37,0.07,1.86,0.05,2.18c0.51-1.17,1.45-2.46,3.82-2.46
		c2.05,0,3.86,1.15,3.86,4.32v7.45h-1.15v-7.27c0-2.05-0.85-3.38-2.85-3.38c-2.74,0-3.68,2.28-3.68,4.78v5.86h-1.15V196.7z"/>
	<path d="M157.46,203.12c0,1.01,0.09,1.82,0.16,2.18h-1.1c-0.09-0.28-0.16-0.78-0.21-1.77c-0.39,0.85-1.4,2.05-3.77,2.05
		c-2.67,0-3.82-1.72-3.82-3.45c0-2.53,1.96-3.68,5.4-3.68c0.97,0,1.72,0,2.18,0v-1.17c0-1.15-0.35-2.69-2.97-2.69
		c-2.32,0-2.67,1.22-2.92,2.16h-1.15c0.14-1.27,0.92-3.22,4.09-3.22c2.62,0,4.09,1.1,4.09,3.63V203.12z M156.34,199.44
		c-0.44,0-1.49,0-2.25,0c-2.55,0-4.14,0.67-4.14,2.64c0,1.45,1.04,2.44,2.64,2.44c3.29,0,3.75-2.18,3.75-4.67V199.44z"/>
	<path d="M161.26,205.31v-16.95h1.15v16.95H161.26z"/>
	<path d="M166.11,193.81c2.32,6.58,3.33,9.29,3.72,10.53h0.02c0.46-1.4,1.38-4.07,3.61-10.53h1.2l-4.32,12.16
		c-1.22,3.4-2.05,4.16-4.12,4.16c-0.41,0-0.69-0.02-1.06-0.07v-1.15c0.35,0.05,0.67,0.07,1.04,0.07c1.66,0,2.18-0.8,3.04-3.17
		l-4.39-12H166.11z"/>
	<path d="M177.2,202.13c0.39,1.49,1.45,2.39,3.26,2.39c2.05,0,2.88-0.94,2.88-2.23c0-1.31-0.55-1.95-3.13-2.58
		c-2.97-0.71-3.7-1.61-3.7-3.13c0-1.59,1.2-3.06,3.79-3.06c2.6,0,3.84,1.59,4.02,3.22h-1.15c-0.21-0.97-0.97-2.16-2.92-2.16
		c-2,0-2.58,0.99-2.58,1.91c0,1.06,0.55,1.59,2.83,2.14c3.24,0.78,4.05,1.84,4.05,3.56c0,2.09-1.7,3.38-4.12,3.38
		c-2.62,0-4.09-1.38-4.42-3.45H177.2z"/>
	<path d="M187.41,188.36h1.15v2.23h-1.15V188.36z M187.41,193.81h1.15v11.5h-1.15V193.81z"/>
	<path d="M192.22,202.13c0.39,1.49,1.45,2.39,3.27,2.39c2.05,0,2.87-0.94,2.87-2.23c0-1.31-0.55-1.95-3.13-2.58
		c-2.97-0.71-3.7-1.61-3.7-3.13c0-1.59,1.2-3.06,3.79-3.06c2.6,0,3.84,1.59,4.02,3.22h-1.15c-0.21-0.97-0.97-2.16-2.92-2.16
		c-2,0-2.58,0.99-2.58,1.91c0,1.06,0.55,1.59,2.83,2.14c3.24,0.78,4.05,1.84,4.05,3.56c0,2.09-1.7,3.38-4.12,3.38
		c-2.62,0-4.09-1.38-4.42-3.45H192.22z"/>
</g>
<g>
	<linearGradient id="SVGID_1_" gradientUnits="userSpaceOnUse" x1="9.3826" y1="109.6779" x2="228.7131" y2="109.6779">
		<stop  offset="0" style="stop-color:#2A3990"/>
		<stop  offset="8.744050e-08" style="stop-color:#0061AA"/>
		<stop  offset="2.770450e-07" style="stop-color:#00AEEF"/>
		<stop  offset="0.0912" style="stop-color:#00A9EB"/>
		<stop  offset="0.224" style="stop-color:#00A0E2"/>
		<stop  offset="0.3823" style="stop-color:#0092D4"/>
		<stop  offset="0.5602" style="stop-color:#007DC1"/>
		<stop  offset="0.7544" style="stop-color:#0063AB"/>
		<stop  offset="0.9594" style="stop-color:#224194"/>
		<stop  offset="1" style="stop-color:#2B3990"/>
	</linearGradient>
	<path class="st0" d="M127.04,156.85c-0.2,0.29-0.5,0.56-0.58,0.88c-0.56,2.47-2.77,4.54-5.23,4.68c-0.98,0.05-1.69,0.25-2.07,1.21
		c-0.11,0.27-0.31,0.63-0.55,0.71c-3.61,1.21-3.54,4.57-4.36,7.41c-0.37,1.27-0.12,2.45,0.57,3.58c0.26,0.43,0.39,0.94,0.73,1.81
		c-2.7-0.89-5.06-1.43-7.19-2.44c-1.9-0.9-2.72-2.81-2.73-4.91c0-1.16-0.21-2.03-1.4-2.53c-0.44-0.19-0.79-0.74-1.04-1.2
		c-0.63-1.15-1.28-2.3-1.74-3.52c-0.94-2.49-2.73-4.31-4.68-5.97c-1.64-1.4-3.74-1.15-5.71-1.11c-0.32,0.01-0.71,0.61-0.91,1.02
		c-0.29,0.61-0.31,1.38-0.68,1.92c-0.28,0.41-1.12,0.94-1.37,0.81c-1.85-1-3.76-1.98-5.33-3.35c-0.75-0.65-1.01-2.11-1.1-3.24
		c-0.11-1.4-0.53-2.49-1.56-3.45c-1.09-1.02-2.21-2.06-3.08-3.26c-1.45-2.02-3.42-2.73-5.76-2.84c-1.48-0.07-2.95-0.26-4.45-0.4
		c-0.31,0.61-0.55,1.1-0.87,1.73c-1.32-0.1-2.67-0.24-4.02-0.29c-5.42-0.18-10.38-1.72-14.93-4.68c-2.3-1.5-4.69-2.84-7.02-4.28
		c-0.41-0.25-1.03-0.64-1.04-0.98c-0.06-1.54-1.12-1.57-2.2-1.7c-2.84-0.35-5.67-0.72-8.42-1.07c-0.14-0.21-0.28-0.33-0.26-0.41
		c0.67-3.8-2.27-5.82-4.15-8.34c-0.26-0.35-0.86-0.5-1.33-0.62c-0.85-0.22-1.39-0.61-1.67-1.53c-0.15-0.49-0.78-0.92-1.29-1.18
		c-1.1-0.57-2.26-1.01-3.63-1.6c1.68-3.26-0.77-5.69-1.55-8.46c-0.13-0.45-0.47-0.9-0.83-1.21c-1-0.87-1.17-1.64-0.1-2.62
		c0.65-0.6,0.47-1.26-0.14-1.95c-0.6-0.67-0.98-1.54-1.55-2.48c1.97-0.74,2.15-1.84,1.39-3.33c-0.51,0.1-1.02,0.19-1.75,0.33
		c-0.08-0.65-0.12-1.18-0.23-1.69c-0.18-0.84-0.2-1.8-0.66-2.47c-0.96-1.4-0.83-2.71-0.45-4.24c0.25-1,0.16-2.23-0.19-3.2
		c-0.7-1.95-1-3.57,0.73-5.27c0.87-0.86,1.3-2.36,1.49-3.64c0.3-1.95,0.09-3.97,0.36-5.92c0.15-1.1,0.57-2.39,1.33-3.12
		c1.28-1.24,1.51-2.8,2.09-4.29c0.42-1.08,1.09-2.06,1.51-3.14c0.6-1.56,1.04-3.18,1.59-4.77c0.68-1.97,1.39-3.92,2.19-6.14
		c-1.45-1.7-0.79-3.89-0.45-6.45c1.95,1.04,3.69,1.97,5.62,2.99c-1.2,1.35-1.7,2.54-0.43,4.22c0.53-0.53,1.05-0.95,1.42-1.47
		c0.42-0.6,0.73-1.29,1.05-1.96c0.15-0.32,0.35-0.68,0.33-1c-0.1-1.3-0.27-2.6-0.45-4.19c1.2,0.28,2.05,0.43,2.86,0.68
		c11.95,3.68,24.22,5.76,36.51,7.85c13.63,2.31,27.35,3.15,41.12,3.64c4.54,0.16,9.09,0.18,13.64,0.21
		c1.19,0.01,2.45-0.06,2.53-1.88c0.13,0.01,0.26,0.03,0.39,0.04c0.27,0.49,0.57,0.96,0.8,1.47c0.9,2.05,1.94,2.71,4.16,2.38
		c1.69-0.25,3.25-0.32,4.03,1.29c3.2,0.92,6.31,0.64,9.48,1.17c-3.21,1.72-6.13,3.76-8.38,6.8c1.58,0.92,2.85,0.22,4.09-0.39
		c1.56,1.53,3.11,1.56,5,0.21c0.89-0.63,1.86-1.16,2.74-1.8c0.83-0.61,1.6-1.3,2.51-2.06c0.17,1.17-1.6,1.79-0.48,3.03
		c1.4-0.75,2.37-0.04,3.59,0.77c0.92,0.61,2.49,0.66,3.64,0.4c1.61-0.36,3.1-1.25,4.81-1.98c0.33,1.34,1.02,2.01,2.5,1.58
		c0.36-0.1,0.95,0.58,1.43,0.9c-0.01,0.18-0.03,0.37-0.04,0.55c-0.97,0.13-1.96,0.43-2.91,0.35c-1.82-0.15-3.45,0.11-4.94,1.25
		c-0.35,0.27-0.93,0.22-1.39,0.38c-0.39,0.13-0.93,0.25-1.09,0.54c-1.16,2.1-2.24,4.24-3.32,6.38c-0.09,0.19,0.01,0.47,0.02,0.71
		c0.12,0.1,0.25,0.19,0.37,0.29c0.76-0.79,1.51-1.58,2.6-2.72c-0.55,1.74-0.98,3.12-1.42,4.5c-0.07,0.23-0.21,0.47-0.21,0.7
		c0,1.65,0.04,3.29,0.05,4.94c0.01,1.93-0.03,3.83,1.5,5.4c0.54,0.55,0.6,1.56,0.87,2.32c3.12-0.26,4.6-1.98,4.89-5.59
		c0.11-1.45-0.11-2.79-1-4.08c-0.51-0.74-0.59-1.82-0.72-2.77c-0.2-1.48,0.82-4.95,1.72-6.13c0.32,0.16,0.67,0.34,0.98,0.5
		c0.17-0.14,0.32-0.19,0.35-0.29c0.45-1.2,0.8-2.43,1.36-3.57c0.16-0.34,0.93-0.68,1.3-0.58c1.54,0.43,3.03,1.03,4.1,1.41
		c0.54,1.65,0.92,2.84,1.39,4.27c-0.59,1.06-1.31,2.35-2.1,3.78c0.41,0.89,0.91,1.18,1.85,0.25c2.48-2.46,2.97-2.22,4.02,1.2
		c0.64,2.07-0.19,3.68-0.95,5.37c-0.53,1.17-1.17,2.29-1.76,3.43c2.73,2.25,5.16,2.21,7.99,0.09c1.59-1.19,3.39-2.1,5-3.27
		c1.2-0.88,2.26-1.96,3.34-2.99c1.55-1.46,1.61-2.07,0.49-3.82c0.84-1.12,2.78-1.76,4.25-1.39c1.55,0.39,4.7-0.65,5.5-2
		c0.71-1.21,0.52-2.5-0.35-3.61c1.04-1.49,2-2.98,3.1-4.36c0.33-0.42,0.99-0.66,1.55-0.83c3.46-1.01,7.01-1.79,10.38-3.03
		c1.39-0.51,2.81-1.76,3.54-3.06c0.73-1.29,0.62-3.05,0.87-4.61c0.36-2.26,0.72-4.52,1.08-6.77c0.15,0.12,0.31,0.23,0.46,0.35
		c0.96-0.26,1.93-0.47,2.87-0.8c1.02-0.36,2.04,0.09,2.48,1.29c0.37,0.99,0.59,2.04,0.93,3.04c0.43,1.27,0.67,2.54,2.04,3.4
		c0.82,0.52,0.79,2.14,2.22,2.35c0.1,0.01,0.29,1.08,0.07,1.31c-0.87,0.92-1.87,1.73-2.86,2.54c-0.75,0.62-1.89,1.03-2.23,1.81
		c-0.48,1.09-1.19,1.62-2.13,2.15c-1.05,0.58-2.38,1.11-1.62,2.8c0.04,0.09,0.01,0.29-0.06,0.35c-2.1,1.96-0.8,4.39-0.95,6.7
		c1.41,0.76,2.13,3.02,4.52,1.81c0.01,0.16,0.02,0.31,0.03,0.47c-0.55,0.29-1.08,0.66-1.66,0.86c-0.57,0.2-1.19,0.24-2.17,0.42
		c-0.29-0.25-0.87-0.76-1.67-1.45c0.14,0.64,0.29,1.02,0.3,1.41c0.03,1.15-0.23,1.97-1.64,2.23c-2.31,0.42-4.36,1.47-5.93,3.29
		c-0.33,0.38-0.61,0.81-0.91,1.22c0.11,0.14,0.23,0.29,0.34,0.43c1.31-0.63,2.62-1.25,3.93-1.88c0.09,0.17,0.17,0.35,0.26,0.52
		c-1.25,0.87-2.12,2.33-4.08,2.14c-0.54-0.05-1.12,0.34-1.85,0.59c2.19,2.08,2.26,5.33,0.42,7.17c-0.62,0.62-2.08,0.48-2.89-0.31
		c-0.42-0.41-0.77-0.89-1.36-1.19c0.62,2.31,1.71,4.36,3.27,6.19c-0.18,0.76-0.37,1.54-0.65,2.71c-1.07-0.47-2.09-0.91-3.21-1.4
		c-0.34-1.41-0.68-2.86-1.07-4.49c0.17-0.36,0.44-0.93,0.8-1.71c-1.67,0.04-2.07,1.11-2.19,1.97c-0.16,1.12-0.05,2.36,0.27,3.45
		c0.31,1.06,0.33,1.79-1.37,2.32c3.59,1.28,3.3,3.83,2.85,6.49c0.99,0,1.83,0,2.73,0c0.23,1,0.44,1.94,0.67,2.95
		c-0.92,0.66-1.85,1.33-3.05,2.19c1.61,0.44,3.12-0.8,4.13,0.67c-0.27,1.87-0.5,1.98-2.59,1.15c-1.24,0.75,0.04,1.49,0.03,2.43
		c-0.41,0.31-0.91,0.69-1.42,1.07c0.02,0.13,0.05,0.25,0.07,0.38c0.71-0.09,1.41-0.19,2.34-0.31c-0.25,0.27-0.39,0.55-0.59,0.62
		c-2.28,0.83-3.85,2.3-4.67,4.64c-0.18,0.52-0.92,1.02-1.5,1.18c-1.21,0.32-1.96,0.95-2.35,2.14c-0.92,2.8-2.9,4.78-5.07,6.66
		c-0.86,0.74-1.68,1.72-2.08,2.75c-0.85,2.18-2.07,4.52-1.94,6.72c0.17,2.74,0.69,5.72,2.63,8.04c0.76,0.91,1.58,1.76,2.37,2.65
		c0.73,0.83,1.63,1.55,1.17,2.92c-0.12,0.35,0.35,0.88,0.53,1.34c0.3,0.79,0.58,1.59,0.89,2.39c0.15,0.4,0.22,0.92,0.52,1.16
		c2.36,1.96,1.75,4.61,1.69,7.11c-0.02,0.92-0.31,1.83-0.5,2.9c-0.44,0.23-0.98,0.51-1.77,0.92c-0.76-0.73-1.55-1.48-2.33-2.23
		c-0.04-0.04-0.06-0.13-0.11-0.15c-2.16-1.11-3.1-3.25-4.37-5.13c-0.2-0.3-0.74-0.37-1.12-0.56c-1.32-0.64-1.9-2.1-1.44-3.52
		c0.15-0.48,0.19-1,0.33-1.76c-0.86,0.17-1.36,0.26-1.92,0.37c-0.01-0.17-0.03-0.34-0.02-0.51c0.05-0.81,0.23-1.63,0.15-2.42
		c-0.16-1.55-0.5-2.95-2.16-3.81c-1.09-0.56-1.93-1.66-2.77-2.62c-1.26-1.44-2.94-1.58-4.44-0.4c-1,0.79-2.13,1.42-3.23,2.15
		c-0.77-0.94-1.39-1.7-2.01-2.45c-0.06,0.12-0.12,0.24-0.18,0.36c-1.26-0.51-2.52-1.02-4.21-1.7c-0.98,0.17-2.5,0.4-4,0.72
		c-0.63,0.13-1.38,0.77-1.79,0.58c-0.56-0.26-0.86-1.1-1.46-1.96c-0.33,0.78-0.55,1.28-0.64,1.49c-2.11,0.53-4.02,1.06-5.94,1.47
		c-0.56,0.12-1.23,0.02-1.79-0.16c-1.03-0.33-1.82-0.17-2.46,0.82c0.46,1.38,1.44,1.26,2.51,0.8c0.35,0.42,0.64,0.78,0.99,1.21
		c0.57-0.33,1.08-0.62,1.58-0.91c0.09,0.09,0.19,0.18,0.28,0.27c-0.51,0.61-1.01,1.21-1.7,2.04c0.85,0.72,1.71,1.45,2.57,2.18
		c-0.06,0.12-0.12,0.25-0.17,0.37c-1.24-0.63-2.47-1.26-3.79-1.93c-0.37,0.5-0.68,0.92-0.76,1.03c-1.02,0.13-1.76,0.35-2.48,0.29
		c-0.75-0.06-1.58-0.24-2.21-0.63c-1.25-0.78-2.39-1.74-3.68-2.7c-0.89,1.46-2.01,1.6-3.3,1.1c-2.23-0.85-4.39-0.35-6.58,0.26
		c-1.11,0.31-2.32,0.29-3.48,0.42C127.13,157.13,127.09,156.99,127.04,156.85z"/>
</g>
<rect x="59.1" y="27.52" class="st24" width="11.68" height="2.67"/>
</svg>
