<?xml version="1.0" encoding="utf-8"?>
<!-- Generator: Adobe Illustrator 27.0.0, SVG Export Plug-In . SVG Version: 6.00 Build 0)  -->
<svg version="1.1" id="Layer_1" xmlns="http://www.w3.org/2000/svg" xmlns:xlink="http://www.w3.org/1999/xlink" x="0px" y="0px"
	 viewBox="0 0 535 633" style="enable-background:new 0 0 535 633;" xml:space="preserve">
<style type="text/css">
	.st0{fill:#FFFFFF;}
</style>
<g>
	<path class="st0" d="M256,606.3c-20.3-2-37.3-8.7-44.3-17.4c-1.5-1.9-3.2-4-3.8-4.6c-0.5-0.7-2.2-1.3-3.7-1.3
		c-4-0.1-10.4-3.3-13.4-6.8c-5.9-7-5.9-7.2-5.5-59.7c0.1-26.4,0.6-48.9,1-50c0.7-1.8-1-2.8-15-9.6C104,424.4,57.7,363.7,44,289.9
		c-2.7-14.5-3.9-49.8-2.1-64.5c6.2-51.6,28.7-98.6,64.6-134.9C150.7,45.7,207.4,22,270.5,22c30.8,0,58.8,5.7,88,17.8
		c18.2,7.6,40.5,20.8,55,32.6c13.8,11.1,36.9,35.7,40.8,43.2s-4.3,16.9-12.8,14.6c-2-0.6-4.5-2.8-7.5-6.7
		c-11.6-15.4-33-35-50.1-46.1C321.7,37,244.7,32.2,178.5,64.5C132.8,86.8,95.9,126.1,76.8,173c-16.5,40.4-19.4,86.5-8.3,130.5
		c1.4,5.5,3,11.1,3.5,12.5c11.6,32.8,26.9,57.1,50.9,81c31.9,31.9,68.9,51.3,111,58.4c12.1,2,14.1,2,14.1,0c0-1.5,0.9-1.6,6.1-1
		c3.4,0.3,8.4,0.6,11,0.6c3.6,0,4.9,0.4,4.9,1.4c0,2.4,3.5,2.8,15.3,1.7c28.5-2.8,54.5-10,76.7-21.1c26.4-13.2,50.8-32.7,68.6-54.6
		c4.1-5.1,8.7-9.7,10.2-10.3c4.1-1.7,10.2,0.5,12.1,4.4c3.2,6.6,1.9,9.5-11.9,25.2c-21.4,24.7-58.3,50.5-88,61.8
		c-5.2,2-9.9,4-10.3,4.4s-0.7,22.9-0.7,49.9c0,47.1,0,49.4-1.9,53.1c-2.6,5-7.2,8.8-12.4,10.1c-2.3,0.6-4.9,1.3-5.9,1.6
		c-0.9,0.3-2.4,1.7-3.3,3.2C309.8,599.4,281.1,608.9,256,606.3L256,606.3z M285.5,586.5c10.3-2.9,19.5-8.8,19.5-12.6
		c0-2.3,2.1-2.3-33-0.4c-36.1,1.9-44.9,2.6-45.5,3.5c-0.7,1.2,3.7,4.7,8.6,6.8c4.3,1.9,11.6,3.7,18.4,4.6
		C259.6,589.3,279.7,588,285.5,586.5L285.5,586.5z M237.5,565c7.7-0.6,30.2-2,50-3.1s36.4-2.4,36.9-2.9c1.1-1.1,0.4-17.7-0.9-18.8
		c-0.6-0.5-18.5,0.1-43.5,1.4c-23.4,1.2-50.1,2.6-59.5,3.1l-17,0.8v9.5v9.5l3.5,0.6C212.7,566.1,222.7,566.1,237.5,565z M256,531.9
		c21.2-1.1,44.8-2.2,52.5-2.6c11-0.4,14.3-0.9,15.3-2.1c1.4-1.8,1.7-16.9,0.4-19c-0.7-1-6.1-0.9-28.3,0.3c-15.1,0.8-37.1,2-48.9,2.6
		c-11.8,0.6-26.4,1.3-32.5,1.7l-11,0.7l-0.3,9.4c-0.1,5.2,0,10.1,0.2,10.8c0.4,1,2.2,1.2,7.3,0.8C214.5,534.2,234.8,533,256,531.9
		L256,531.9z M269.9,499.1c42-2.2,53.5-3.1,54.2-4.2c1.5-2.4,1.1-17.5-0.5-18.8c-1.7-1.4-11.2-0.8-24.6,1.6c-5.7,1-16.8,1.6-34,1.8
		c-26.5,0.4-47.7,1.1-56.7,2.1l-5.3,0.6v9.9v9.9h6.8C213.5,501.9,240.5,500.7,269.9,499.1z"/>
</g>
<g>
	<path class="st0" d="M250.8,457.3l-2.8-0.4V329.6V202.3l3.1-0.7c4-0.8,15.3-0.8,17.3,0c1.4,0.6,1.6,12.8,1.6,128.5V458l-8.2-0.1
		C257.2,457.8,252.3,457.5,250.8,457.3L250.8,457.3z"/>
	<path class="st0" d="M256.6,182.8c-3.3-5.1-2.9-15.4,0.9-20.3c1.5-2,1.5-2,3.5,0.5c2.4,3.1,2.7,13.3,0.6,18.5
		C259.9,185.6,258.6,185.9,256.6,182.8z"/>
	<path class="st0" d="M276.3,178.7c-5.5-4-8.7-9.2-9.8-15.9c-0.8-5,0.9-5.7,5.2-2.2c5,4.1,8.5,11.2,8.1,16.4l-0.3,4.1L276.3,178.7
		L276.3,178.7z"/>
	<path class="st0" d="M238,176.3c0-7.1,7.1-17.3,12.1-17.3c1.8,0,1.9,0.5,1.3,3.8c-0.9,5.2-3,9.1-7.2,13.5
		C239.6,181.1,238,181.1,238,176.3L238,176.3z"/>
	<path class="st0" d="M223.7,165.3c-1.2-1.1-0.8-2.1,2.4-5.8c5.5-6.2,17.9-10.1,17.9-5.5c0,3.1-6.8,8.9-12.3,10.5
		C226.1,166.2,224.6,166.3,223.7,165.3L223.7,165.3z"/>
	<path class="st0" d="M283.5,163.6c-3.5-1.5-10.5-8.4-10.5-10.3c0-2,6.8-1.6,11.7,0.8c4.2,2,9.3,7.4,9.3,9.7
		C294,165.4,287.3,165.3,283.5,163.6z"/>
	<path class="st0" d="M223,147.9c-1.9-0.6-4.1-1.6-4.9-2.4c-1.1-1.1-1-1.5,1-2.8c5.3-3.3,19.1-3,22.7,0.6c1.3,1.3,1.1,1.7-1,3.1
		C237.7,148.4,227.6,149.3,223,147.9L223,147.9z"/>
	<path class="st0" d="M281.1,148.1c-5.8-1.5-6.3-5.1-0.9-7c6.4-2.2,19.3-0.2,19.3,3S288,149.8,281.1,148.1z"/>
	<path class="st0" d="M237.5,136.1c-4.8-1.2-9.1-3.8-11.9-7.2c-3.5-4.2-2.9-5.5,2.5-5.1c6.8,0.5,15.3,6.1,16.1,10.7
		C244.5,136.8,242.4,137.3,237.5,136.1L237.5,136.1z"/>
	<path class="st0" d="M273.6,136.1c-2.6-4.1,12.3-14.6,17.8-12.5s-3.9,11.1-13.6,12.9C275.6,136.9,274,136.8,273.6,136.1
		L273.6,136.1z"/>
	<path class="st0" d="M245.8,127.7c-5.3-4.9-7.9-10.1-7.6-15.1l0.3-4.6l3.5,2.4c4.1,2.7,8.7,10.5,9.2,15.6
		C251.6,130.4,249.4,131,245.8,127.7z"/>
	<path class="st0" d="M266.4,128.6c-0.3-0.8,0.1-3.9,1-6.9c1.2-4.1,2.7-6.5,6.1-9.6c5.9-5.5,6.9-5.3,6.2,0.8
		c-0.7,5.7-1.9,8.2-6.7,13.4C269.4,130.2,267.3,130.9,266.4,128.6z"/>
	<path class="st0" d="M257.2,126.7c-2.6-3-3.6-10.3-2.3-16c1-4.7,3.5-9,4.4-7.6c3.3,5.2,4.5,16.1,2.3,21.2
		C260,128.2,258.9,128.8,257.2,126.7z"/>
</g>
</svg>
