<svg xmlns="http://www.w3.org/2000/svg" xmlns:xlink="http://www.w3.org/1999/xlink" id="visual" version="1.1" viewBox="0 305 960 236"><path d="M0 381L22.8 369.8C45.7 358.7 91.3 336.3 137 335.7C182.7 335 228.3 356 274 364.8C319.7 373.7 365.3 370.3 411.2 363.8C457 357.3 503 347.7 548.8 334.7C594.7 321.7 640.3 305.3 686 305C731.7 304.7 777.3 320.3 823 328C868.7 335.7 914.3 335.3 937.2 335.2L960 335L960 541L937.2 541C914.3 541 868.7 541 823 541C777.3 541 731.7 541 686 541C640.3 541 594.7 541 548.8 541C503 541 457 541 411.2 541C365.3 541 319.7 541 274 541C228.3 541 182.7 541 137 541C91.3 541 45.7 541 22.8 541L0 541Z" fill="#bfcfe9"/><path d="M0 384L22.8 382.7C45.7 381.3 91.3 378.7 137 388.5C182.7 398.3 228.3 420.7 274 425C319.7 429.3 365.3 415.7 411.2 414.2C457 412.7 503 423.3 548.8 425.3C594.7 427.3 640.3 420.7 686 416.8C731.7 413 777.3 412 823 413.2C868.7 414.3 914.3 417.7 937.2 419.3L960 421L960 541L937.2 541C914.3 541 868.7 541 823 541C777.3 541 731.7 541 686 541C640.3 541 594.7 541 548.8 541C503 541 457 541 411.2 541C365.3 541 319.7 541 274 541C228.3 541 182.7 541 137 541C91.3 541 45.7 541 22.8 541L0 541Z" fill="#8ea6d4"/><path d="M0 476L22.8 463.2C45.7 450.3 91.3 424.7 137 412.2C182.7 399.7 228.3 400.3 274 405.5C319.7 410.7 365.3 420.3 411.2 432C457 443.7 503 457.3 548.8 458.8C594.7 460.3 640.3 449.7 686 447.2C731.7 444.7 777.3 450.3 823 444.7C868.7 439 914.3 422 937.2 413.5L960 405L960 541L937.2 541C914.3 541 868.7 541 823 541C777.3 541 731.7 541 686 541C640.3 541 594.7 541 548.8 541C503 541 457 541 411.2 541C365.3 541 319.7 541 274 541C228.3 541 182.7 541 137 541C91.3 541 45.7 541 22.8 541L0 541Z" fill="#5f7ebe"/><path d="M0 485L22.8 478C45.7 471 91.3 457 137 457.8C182.7 458.7 228.3 474.3 274 484C319.7 493.7 365.3 497.3 411.2 495.5C457 493.7 503 486.3 548.8 484.7C594.7 483 640.3 487 686 485C731.7 483 777.3 475 823 475.8C868.7 476.7 914.3 486.3 937.2 491.2L960 496L960 541L937.2 541C914.3 541 868.7 541 823 541C777.3 541 731.7 541 686 541C640.3 541 594.7 541 548.8 541C503 541 457 541 411.2 541C365.3 541 319.7 541 274 541C228.3 541 182.7 541 137 541C91.3 541 45.7 541 22.8 541L0 541Z" fill="#2b58a7"/></svg>