<?xml version="1.0" encoding="utf-8"?>
<!-- Generator: Adobe Illustrator 27.0.0, SVG Export Plug-In . SVG Version: 6.00 Build 0)  -->
<svg version="1.1" id="Layer_1" xmlns="http://www.w3.org/2000/svg" xmlns:xlink="http://www.w3.org/1999/xlink" x="0px" y="0px"
	 viewBox="0 0 234 234" style="enable-background:new 0 0 234 234;" xml:space="preserve">
<style type="text/css">
	.st0{fill:url(#SVGID_1_);}
	.st1{fill:url(#SVGID_00000134239450669052085420000011886859493318989721_);}
	.st2{fill:url(#SVGID_00000061454153826480874080000010685058296750357120_);}
	.st3{fill:url(#SVGID_00000054963150785152271440000001799203217885021865_);}
	.st4{fill:url(#SVGID_00000122697803170541416660000006109431745884058003_);}
	.st5{fill:url(#SVGID_00000009575808606988081840000007897505806382845323_);}
	.st6{fill:url(#SVGID_00000084511520166900874210000015793842337094655422_);}
	.st7{fill:url(#SVGID_00000087411889878752009420000018107251828185370553_);}
	.st8{fill:url(#SVGID_00000133488338275916688780000004409634516646770345_);}
	.st9{fill:url(#SVGID_00000116921645347119752870000016575193551414167699_);}
	.st10{fill:url(#SVGID_00000109025669121323590650000005370547575818774154_);}
	.st11{fill:url(#SVGID_00000171720403106539991540000010157120473348947626_);}
	.st12{fill:url(#SVGID_00000150101922582843540120000009017849869392054443_);}
	.st13{fill:url(#SVGID_00000093162155180125458250000003589887864614846888_);}
	.st14{fill:url(#SVGID_00000139281098039709578990000000793350443914974139_);}
	.st15{fill:url(#SVGID_00000038397367196795601370000017078355568540141753_);}
	.st16{fill:url(#SVGID_00000125577007483968062920000013820222841702478008_);}
	.st17{fill:url(#SVGID_00000163057131609291886820000009484145436879307173_);}
	.st18{fill:url(#SVGID_00000072969118118654925230000010803261176785316278_);}
	.st19{fill:url(#SVGID_00000058549847773137792860000004636950188598915495_);}
	.st20{fill:url(#SVGID_00000069356976902212032070000001934938666116876717_);}
	.st21{fill:url(#SVGID_00000003083724874372839900000005071383789080996736_);}
	.st22{fill:url(#SVGID_00000164499610327619548070000004621051328432103083_);}
	.st23{fill:url(#SVGID_00000109009284359293915760000000543151913608974743_);}
	.st24{fill:url(#SVGID_00000047043126671192310600000006387727543108703375_);}
	.st25{fill:#FFFFFF;}
	.st26{fill:url(#SVGID_00000073693846279594518070000015897791508316058815_);}
	.st27{fill:url(#SVGID_00000135662672275899208640000009025100224160642466_);}
	.st28{fill:url(#SVGID_00000176005028841947255550000002529299482895019683_);}
	.st29{fill:url(#SVGID_00000072257797064397245610000004730564695046254783_);}
	.st30{fill:url(#SVGID_00000018957062757097899850000012365411916262550178_);}
	.st31{fill:url(#SVGID_00000079467134701881980440000004374437216921852298_);}
	.st32{fill:#8E99CD;}
	.st33{fill:url(#SVGID_00000079466726314605119470000001192707598968690825_);}
	.st34{fill:url(#SVGID_00000102505134847720819260000006801983208412104383_);}
	.st35{fill:url(#SVGID_00000083776205818123175570000007416772281975576253_);}
	.st36{fill:url(#SVGID_00000171679027070864452170000000464343896031558043_);}
	.st37{fill:#FDFEFE;}
	.st38{fill:url(#SVGID_00000082329903046818269550000007260684663029161116_);}
	.st39{fill:url(#SVGID_00000129900783213449873650000012831203746400905903_);}
</style>
<rect x="58" y="27.52" class="st25" width="23.32" height="5.71"/>
<linearGradient id="SVGID_1_" gradientUnits="userSpaceOnUse" x1="55.8" y1="108.1786" x2="178.2" y2="108.1786">
	<stop  offset="0" style="stop-color:#2A3990"/>
	<stop  offset="8.744050e-08" style="stop-color:#0061AA"/>
	<stop  offset="2.770450e-07" style="stop-color:#00AEEF"/>
	<stop  offset="0.0912" style="stop-color:#00A9EB"/>
	<stop  offset="0.224" style="stop-color:#00A0E2"/>
	<stop  offset="0.3823" style="stop-color:#0092D4"/>
	<stop  offset="0.5602" style="stop-color:#007DC1"/>
	<stop  offset="0.7544" style="stop-color:#0063AB"/>
	<stop  offset="0.9594" style="stop-color:#224194"/>
	<stop  offset="1" style="stop-color:#2B3990"/>
</linearGradient>
<circle class="st0" cx="117" cy="108.18" r="61.2"/>
<path class="st25" d="M129.02,116.69l0.01,0.01v-0.01c-0.09-0.12-0.15-0.23-0.19-0.32C128.88,116.46,128.94,116.57,129.02,116.69z
	 M128.87,115.74c0.06-0.12,0.15-0.27,0.28-0.45C129.02,115.47,128.93,115.61,128.87,115.74z"/>
<path class="st25" d="M86.94,82.69c-0.21-0.25-0.4-0.48-0.58-0.72c-0.36-0.48-0.22-1.07,0.33-1.29c1.62-0.66,3.25-1.3,4.89-1.93
	c0.35-0.14,0.7-0.08,0.95,0.24c0.24,0.31,0.25,0.65,0.05,0.98c-0.9,1.48-1.8,2.95-2.71,4.42c-0.35,0.56-0.97,0.58-1.41,0.09
	c-0.13-0.15-0.25-0.3-0.4-0.48c-0.58,0.7-1.08,1.42-1.55,2.16c-2.17,3.37-3.61,7.02-4.17,10.98c-1.24,8.74,1,16.5,6.82,23.15
	c4.3,4.91,9.74,7.91,16.16,9.11c2.66,0.5,5.35,0.56,8.05,0.28c1.92-0.2,3.79-0.59,5.63-1.18c0.1-0.03,0.2-0.06,0.3-0.08
	c0.46-0.08,0.87,0.16,0.98,0.57c0.12,0.44-0.09,0.85-0.56,1.02c-1.23,0.43-2.49,0.74-3.76,0.98c-2.49,0.48-5.01,0.63-7.54,0.46
	c-4.92-0.33-9.52-1.74-13.71-4.35c-7.1-4.44-11.65-10.74-13.61-18.88c-0.69-2.88-0.89-5.8-0.68-8.76
	c0.44-6.16,2.58-11.67,6.38-16.54C86.83,82.86,86.87,82.79,86.94,82.69z"/>
<path class="st25" d="M139.88,106.75c0.28,0.06,0.53,0.1,0.78,0.17c0.55,0.16,0.8,0.66,0.54,1.16c-0.83,1.57-1.69,3.13-2.54,4.69
	c-0.17,0.31-0.47,0.46-0.83,0.39c-0.36-0.07-0.62-0.28-0.68-0.66c-0.21-1.36-0.41-2.72-0.62-4.08c-0.06-0.39-0.13-0.77-0.16-1.16
	c-0.05-0.67,0.4-1.05,1.06-0.93c0.25,0.05,0.51,0.09,0.78,0.14c0.19-0.76,0.26-1.53,0.33-2.29c0.17-1.79,0.17-3.59,0-5.38
	c-0.31-3.22-1.1-6.32-2.52-9.23c-4.05-8.32-10.59-13.59-19.6-15.74c-2.94-0.7-5.94-0.83-8.96-0.52c-2.63,0.26-5.16,0.88-7.61,1.85
	c-0.72,0.29-1.3-0.24-1.23-0.8c0.04-0.38,0.27-0.59,0.61-0.73c1.81-0.73,3.68-1.26,5.6-1.62c2.3-0.43,4.62-0.58,6.95-0.46
	c4.37,0.22,8.52,1.29,12.38,3.37c7.8,4.2,12.9,10.58,15.21,19.14c0.88,3.24,1.11,6.55,0.84,9.9
	C140.15,104.88,140.01,105.8,139.88,106.75z"/>
<path class="st25" d="M129.02,116.69l0.01,0.01v-0.01c-0.09-0.12-0.15-0.23-0.19-0.32C128.88,116.46,128.94,116.57,129.02,116.69z
	 M128.87,115.74c0.06-0.12,0.15-0.27,0.28-0.45C129.02,115.47,128.93,115.61,128.87,115.74z"/>
<path class="st25" d="M152.85,135.79c-0.77-0.78-1.55-1.55-2.32-2.32c-4.27-4.28-8.55-8.55-12.82-12.82
	c-0.77-0.77-1.67-1.04-2.71-0.67c-0.22,0.07-0.32-0.01-0.46-0.14c-1.2-1.21-2.41-2.42-3.61-3.62c-0.07-0.07-0.17-0.13-0.19-0.24
	c8.33-11.83,4.65-27.07-5.53-34.57c-9.99-7.35-24.02-6.39-32.87,2.74c-8.67,8.95-9.38,22.99-1.63,32.85
	c7.79,9.91,22.62,12.95,34.12,4.89c1.32,1.32,2.62,2.63,3.93,3.94c0.11,0.1,0.09,0.19,0.04,0.31c-0.36,1.05-0.12,1.96,0.66,2.75
	c5.04,5.04,10.09,10.09,15.14,15.13c1.11,1.11,2.6,1.11,3.71,0.01c1.51-1.51,3.02-3.02,4.53-4.53
	C153.95,138.39,153.95,136.9,152.85,135.79z M116.66,120.48c-1.71,0.58-3.47,0.91-5.27,0.99c-5.06,0.25-9.55-1.22-13.52-4.32
	c-0.66-0.52-1.26-1.09-1.85-1.69c-0.22-0.22-0.45-0.43-0.67-0.64c-0.43-0.57-0.88-1.13-1.29-1.7c-1.89-2.62-3.09-5.53-3.53-8.71
	c-0.7-5.05,0.31-9.77,3.17-13.99c3.29-4.87,7.89-7.8,13.7-8.69c3.86-0.6,7.62-0.08,11.2,1.58c4.45,2.06,7.72,5.31,9.84,9.73
	c0.97,2.02,1.54,4.16,1.78,6.4c0.41,4.02-0.34,7.82-2.21,11.39c-0.83,1.6-1.89,3.05-3.13,4.37
	C122.58,117.65,119.83,119.4,116.66,120.48z M129.93,124.54c-1.19-1.19-2.43-2.45-3.69-3.72c0.4-0.36,0.86-0.77,1.31-1.2
	c0.5-0.47,0.53-0.8,0.14-1.36c0.52-0.46,1-0.93,1.34-1.56l-0.01-0.01c-0.04-0.06-0.08-0.12-0.1-0.17c0.03,0.05,0.06,0.11,0.11,0.17
	v0.01c1.46,1.49,2.91,2.96,4.34,4.42C132.24,122.24,131.08,123.4,129.93,124.54z M149.09,136.48c-0.25-0.03-0.42-0.18-0.59-0.35
	c-2.62-2.62-5.24-5.24-7.86-7.86c-1.29-1.29-2.58-2.58-3.87-3.86c-0.32-0.32-0.53-0.66-0.34-1.1c0.19-0.44,0.58-0.52,1.01-0.49h0.01
	c0.03,0.02,0.06,0.04,0.09,0.05c0.15,0.13,0.3,0.26,0.44,0.4l11.68,11.68c0.11,0.11,0.21,0.23,0.31,0.35
	c0.02,0.03,0.04,0.06,0.06,0.09C150.03,136.16,149.7,136.53,149.09,136.48z"/>
<path class="st25" d="M137.55,122.87c-0.03-0.02-0.06-0.04-0.09-0.05C137.48,122.84,137.51,122.86,137.55,122.87z"/>
<path class="st25" d="M101.29,110.08L101.29,110.08c-1.63,0-2.97-1.34-2.97-2.97V97.6c0-1.63,1.34-2.97,2.97-2.97h0
	c1.63,0,2.97,1.34,2.97,2.97v9.51C104.25,108.75,102.92,110.08,101.29,110.08z"/>
<path class="st25" d="M110.25,110.18L110.25,110.18c-1.63,0-2.97-1.34-2.97-2.97v-4.58c0-1.63,1.34-2.97,2.97-2.97h0
	c1.63,0,2.97,1.34,2.97,2.97v4.58C113.21,108.84,111.88,110.18,110.25,110.18z"/>
<path class="st25" d="M119.2,110.08L119.2,110.08c-1.63,0-2.97-1.34-2.97-2.97V93.73c0-1.63,1.34-2.97,2.97-2.97h0
	c1.63,0,2.97,1.34,2.97,2.97v13.38C122.17,108.75,120.83,110.08,119.2,110.08z"/>
<g>
	<g>
		<path d="M56.07,197.5c0-3.15,0.02-6.16,0.09-7.77h-0.07c-0.64,2.16-3.91,10.09-5.96,15.18h-1.22c-1.54-3.93-4.92-12.76-5.66-15.2
			h-0.05c0.11,1.84,0.16,5.59,0.16,8.35v6.85h-1.24v-16.1H44c2.21,5.52,4.99,12.74,5.59,14.56h0.05c0.37-1.17,3.59-9.2,5.84-14.56
			h1.84v16.1h-1.24V197.5z"/>
		<path d="M69.34,202.72c0,1.01,0.09,1.82,0.16,2.18h-1.1c-0.09-0.28-0.16-0.78-0.21-1.77c-0.39,0.85-1.4,2.05-3.77,2.05
			c-2.67,0-3.82-1.72-3.82-3.45c0-2.53,1.95-3.68,5.4-3.68c0.97,0,1.72,0,2.18,0v-1.17c0-1.15-0.34-2.69-2.97-2.69
			c-2.32,0-2.67,1.22-2.92,2.16h-1.15c0.14-1.27,0.92-3.22,4.09-3.22c2.62,0,4.09,1.1,4.09,3.63V202.72z M68.22,199.04
			c-0.44,0-1.5,0-2.25,0c-2.55,0-4.14,0.67-4.14,2.64c0,1.45,1.03,2.44,2.64,2.44c3.29,0,3.75-2.18,3.75-4.67V199.04z"/>
		<path d="M73.14,196.53c0-1.93-0.02-2.76-0.02-3.13h1.13c0.02,0.37,0.05,1.1,0.05,2.58c0.67-1.72,2.14-2.76,4-2.85v1.24
			c-2.39,0.16-4,1.82-4,4.55v5.98h-1.15V196.53z"/>
		<path d="M81.74,199.34c1.06-1.13,4.28-4.39,5.82-5.93h1.47l-4.55,4.58l5.13,6.92h-1.42l-4.53-6.19l-1.91,1.84v4.35h-1.15v-16.95
			h1.15V199.34z"/>
		<path d="M91.63,199.29c0.02,2.97,1.52,4.81,3.73,4.81c2.16,0,2.9-1.22,3.31-2.16h1.17c-0.48,1.52-1.7,3.24-4.53,3.24
			c-3.5,0-4.85-3.01-4.85-5.93c0-3.29,1.63-6.12,4.99-6.12c3.54,0,4.67,3.06,4.67,5.22c0,0.32,0,0.64-0.02,0.94H91.63z
			 M98.92,198.28c-0.02-2.28-1.26-4.07-3.52-4.07c-2.37,0-3.45,1.66-3.7,4.07H98.92z"/>
		<path d="M101.2,193.4h2.14v-3.59h1.15v3.59h2.74v1.08h-2.74v7.47c0,1.29,0.28,2.02,1.38,2.02c0.34,0,0.83-0.02,1.2-0.14v1.01
			c-0.39,0.16-0.94,0.21-1.43,0.21c-1.47,0-2.3-0.74-2.3-2.58v-8h-2.14V193.4z"/>
		<path d="M109.57,187.95h1.15v2.23h-1.15V187.95z M109.57,193.4h1.15v11.5h-1.15V193.4z"/>
		<path d="M114.49,196.3c0-1.01,0-1.98-0.02-2.9h1.13c0.05,0.37,0.07,1.86,0.05,2.18c0.51-1.17,1.45-2.46,3.82-2.46
			c2.05,0,3.86,1.15,3.86,4.32v7.45h-1.15v-7.27c0-2.05-0.85-3.38-2.85-3.38c-2.74,0-3.68,2.28-3.68,4.78v5.86h-1.15V196.3z"/>
		<path d="M135.88,204.12c0,3.68-1.63,5.61-4.97,5.61c-2.99,0-4.23-1.68-4.51-3.43h1.17c0.41,1.59,1.72,2.35,3.38,2.35
			c2.99,0,3.82-1.93,3.82-4.85v-1.2c-0.62,1.5-1.75,2.3-3.84,2.3c-2.69,0-4.76-2.18-4.76-5.75c0-3.86,2.21-6.02,4.92-6.02
			c2.35,0,3.36,1.1,3.68,2.02c0.02-0.67,0.05-1.47,0.07-1.75h1.08c0,0.41-0.05,2.23-0.05,3.33V204.12z M127.4,199.11
			c0,2.74,1.45,4.71,3.66,4.71c2.87,0,3.75-1.91,3.75-4.9c0-3.04-0.92-4.71-3.68-4.71C128.48,194.21,127.4,196.49,127.4,199.11z"/>
		<path d="M149.29,189.96h-5.4v-1.15h12.09v1.15h-5.43v14.95h-1.26V189.96z"/>
		<path d="M167.32,199.13c0,3.2-1.77,6.05-5.2,6.05c-3.1,0-5.04-2.55-5.04-6.03c0-3.29,1.82-6.02,5.15-6.02
			C165.3,193.13,167.32,195.52,167.32,199.13z M158.31,199.15c0,2.74,1.47,4.94,3.91,4.94c2.48,0,3.89-2.05,3.89-4.94
			c0-2.71-1.38-4.94-3.93-4.94C159.55,194.21,158.31,196.39,158.31,199.15z"/>
		<path d="M179.49,199.13c0,3.2-1.77,6.05-5.2,6.05c-3.1,0-5.04-2.55-5.04-6.03c0-3.29,1.82-6.02,5.15-6.02
			C177.46,193.13,179.49,195.52,179.49,199.13z M170.47,199.15c0,2.74,1.47,4.94,3.91,4.94c2.48,0,3.89-2.05,3.89-4.94
			c0-2.71-1.38-4.94-3.93-4.94C171.71,194.21,170.47,196.39,170.47,199.15z"/>
		<path d="M182.34,204.9v-16.95h1.15v16.95H182.34z"/>
		<path d="M187.26,201.73c0.39,1.49,1.45,2.39,3.27,2.39c2.05,0,2.87-0.94,2.87-2.23c0-1.31-0.55-1.95-3.13-2.58
			c-2.97-0.71-3.7-1.61-3.7-3.13c0-1.59,1.2-3.06,3.79-3.06c2.6,0,3.84,1.59,4.02,3.22h-1.15c-0.21-0.97-0.97-2.16-2.92-2.16
			c-2,0-2.58,0.99-2.58,1.91c0,1.06,0.55,1.59,2.83,2.14c3.24,0.78,4.05,1.84,4.05,3.56c0,2.09-1.7,3.38-4.12,3.38
			c-2.62,0-4.09-1.38-4.42-3.45H187.26z"/>
	</g>
</g>
</svg>
