<?xml version="1.0" encoding="utf-8"?>
<!-- Generator: Adobe Illustrator 27.0.0, SVG Export Plug-In . SVG Version: 6.00 Build 0)  -->
<svg version="1.1" id="Layer_1" xmlns="http://www.w3.org/2000/svg" xmlns:xlink="http://www.w3.org/1999/xlink" x="0px" y="0px"
	 viewBox="0 0 234 234" style="enable-background:new 0 0 234 234;" xml:space="preserve">
<style type="text/css">
	.st0{fill:url(#SVGID_1_);}
	.st1{fill:url(#SVGID_00000147932518965297691780000010197785110546007183_);}
	.st2{fill:url(#SVGID_00000142866216605951856810000011575663539696614292_);}
	.st3{fill:url(#SVGID_00000013881890383715076370000014494823388214316210_);}
	.st4{fill:url(#SVGID_00000003824349498188784680000016913515487778217636_);}
	.st5{fill:url(#SVGID_00000133514467559284903250000012936776333236101009_);}
	.st6{fill:url(#SVGID_00000002357225361269380520000007543145531332582810_);}
	.st7{fill:url(#SVGID_00000043415588542889265680000001234713577074427776_);}
	.st8{fill:url(#SVGID_00000034774872366345410540000000383746159718434731_);}
	.st9{fill:url(#SVGID_00000127016054368855938250000017442781921036388025_);}
	.st10{fill:url(#SVGID_00000153673029292077669150000011205417337181656201_);}
	.st11{fill:url(#SVGID_00000054974517782348521340000000941386782397556140_);}
	.st12{fill:url(#SVGID_00000029040979162827350080000017289535157389712029_);}
	.st13{fill:url(#SVGID_00000179616896936915647360000015023621634976980364_);}
	.st14{fill:url(#SVGID_00000114075315878463971070000004680417141268815036_);}
	.st15{fill:url(#SVGID_00000065767654553507542310000009430167100859001005_);}
	.st16{fill:url(#SVGID_00000036229285850020000960000013446623854731997831_);}
	.st17{fill:url(#SVGID_00000049932340428394018930000001554193549772126884_);}
	.st18{fill:url(#SVGID_00000044856799002379400800000001759994528422242488_);}
	.st19{fill:url(#SVGID_00000046302243482236942510000009840011470057002922_);}
	.st20{fill:url(#SVGID_00000134217289894344245180000012642004932570316470_);}
	.st21{fill:url(#SVGID_00000117662321185210618620000010700985695789293459_);}
	.st22{fill:url(#SVGID_00000108270206924437269230000005584088651677788837_);}
	.st23{fill:url(#SVGID_00000069375507768302176620000001647090728489643932_);}
	.st24{fill:url(#SVGID_00000070807224240882432420000002758955578451176105_);}
	.st25{fill:#FFFFFF;}
	.st26{fill:url(#SVGID_00000151529162511627630680000013306642892084302002_);}
	.st27{fill:url(#SVGID_00000067946053779656151830000003643606597552713141_);}
	.st28{fill:url(#SVGID_00000098199861856669118450000015914866921726306954_);}
	.st29{fill:url(#SVGID_00000026847435797035795110000008972176535047923080_);}
	.st30{fill:url(#SVGID_00000057838967217507718440000006073242933963462818_);}
	.st31{fill:url(#SVGID_00000016788347980481812250000012942995381762933399_);}
</style>
<rect x="44.6" y="27.52" class="st25" width="23.32" height="5.71"/>
<g>
	<linearGradient id="SVGID_1_" gradientUnits="userSpaceOnUse" x1="55.8" y1="108.0173" x2="178.2" y2="108.0173">
		<stop  offset="0" style="stop-color:#2A3990"/>
		<stop  offset="8.744050e-08" style="stop-color:#0061AA"/>
		<stop  offset="2.770450e-07" style="stop-color:#00AEEF"/>
		<stop  offset="0.0912" style="stop-color:#00A9EB"/>
		<stop  offset="0.224" style="stop-color:#00A0E2"/>
		<stop  offset="0.3823" style="stop-color:#0092D4"/>
		<stop  offset="0.5602" style="stop-color:#007DC1"/>
		<stop  offset="0.7544" style="stop-color:#0063AB"/>
		<stop  offset="0.9594" style="stop-color:#224194"/>
		<stop  offset="1" style="stop-color:#2B3990"/>
	</linearGradient>
	<circle class="st0" cx="117" cy="108.02" r="61.2"/>
	<path class="st25" d="M133.55,115.82c0.02-0.38,0.06-0.76,0.06-1.14c0-8.38-0.02-16.75,0.02-25.13c0.01-1.1-0.22-1.5-1.43-1.58
		c-2.53-0.15-4.76-1.23-6.66-2.88c-0.68-0.6-1.1-0.67-1.66,0.11c-0.48,0.68-1.07,1.29-1.65,1.89c-0.18,0.19-0.49,0.25-0.74,0.37
		c0.07-0.3,0.05-0.67,0.22-0.88c1.81-2.11,3.64-4.19,5.47-6.28c1.16-1.33,2.36-2.62,3.47-3.99c0.59-0.73,0.97-0.85,1.76-0.16
		c2.03,1.78,4.4,2.77,7.16,2.2c2.21-0.46,3.46-1.96,4.13-4.03c0.06-0.19,0.19-0.37,0.39-0.74c1.27,3.29,0.86,6.21-0.71,9.06
		c-1.71,3.09-4.45,4.73-7.8,5.29c-1.19,0.2-1.26,0.7-1.25,1.63c0.02,14.86,0.01,29.71,0.02,44.57c0,0.93,0.05,1.86-0.03,2.78
		c-0.04,0.41-0.31,1.1-0.53,1.12c-0.51,0.04-1.15-0.11-1.53-0.43c-0.41-0.34-0.61-0.95-0.88-1.45c-8.2-14.95-16.4-29.89-24.6-44.84
		c-0.34-0.61-0.69-1.21-1.29-1.81c-0.03,0.34-0.09,0.69-0.09,1.03c0,10.58-0.01,21.16,0,31.74c0,0.53-0.19,1.1,0.7,1.28
		c3.9,0.77,7.23,2.63,10.23,5.78c1.02-1,1.98-1.94,2.94-2.88c0.06,0.06,0.12,0.12,0.18,0.17c-3.4,3.78-6.79,7.55-10.29,11.44
		c-0.41-0.39-0.75-0.7-1.08-1.03c-1.39-1.35-3.01-2.27-4.94-2.62c-2.36-0.43-4.55,0.73-5.48,2.93c-0.85,1.99-0.14,4.11,1.99,5.44
		c0.99,0.62,2.14,0.97,3.14,1.41c-5.6,1.55-12.03-3.79-11.62-9.79c0.41-6.19,4.93-10.54,11.33-10.91c2.2-0.13,2.21-0.13,2.21-2.39
		c0-3.79-0.05-7.58,0.02-11.37c0.02-1.29-0.53-1.69-1.65-1.53c-0.69,0.1-1.4,0.24-2.03,0.51c-1.75,0.74-2.2,2.46-1.12,4.03
		c0.22,0.31,0.48,0.59,0.83,1.02c-1.69-0.1-3-0.75-3.97-1.85c-4.18-4.74-2.49-11.62,3.6-13.07c1.11-0.26,2.24-0.42,3.37-0.56
		c0.7-0.09,0.97-0.35,0.96-1.09c-0.04-2.91,0.02-5.82-0.03-8.73c-0.03-1.9-2.57-4.64-4.43-4.91c-1.27-0.19-2.28,0.24-2.94,1.32
		c-0.49,0.82-0.85,1.72-1.35,2.77c-0.09-0.38-0.2-0.63-0.21-0.88c-0.15-3.44,0.25-6.69,2.87-9.28c3.8-3.75,9.58-3.6,13.24,0.5
		c1.1,1.23,1.98,2.7,2.79,4.15c6.06,10.95,12.08,21.92,18.11,32.88c0.17,0.3,0.36,0.59,0.54,0.89
		C133.39,115.86,133.47,115.84,133.55,115.82z"/>
</g>
<g>
	<path d="M48.99,205.22v-16.1h1.84c2.51,3.86,8.39,12.85,9.4,14.6h0.02c-0.14-2.32-0.11-4.69-0.11-7.31v-7.29h1.26v16.1h-1.7
		c-2.39-3.73-8.37-13.08-9.52-14.85h-0.02c0.11,2.12,0.09,4.46,0.09,7.38v7.47H48.99z"/>
	<path d="M69.62,205.22v-6.05c0-0.14-0.05-0.3-0.09-0.37l-5.75-9.68h1.45c1.61,2.74,4.42,7.5,5.1,8.69c0.69-1.2,3.52-5.91,5.24-8.69
		h1.38l-6,9.77c-0.05,0.09-0.07,0.18-0.07,0.34v5.98H69.62z"/>
	<path d="M83.67,190.28h-5.4v-1.15h12.1v1.15h-5.43v14.95h-1.26V190.28z"/>
	<path d="M92.39,188.28h1.15v2.23h-1.15V188.28z M92.39,193.73h1.15v11.5h-1.15V193.73z"/>
	<path d="M97.31,196.69c0-0.99,0-2.07-0.02-2.97h1.13c0.02,0.39,0.07,1.38,0.05,2.05c0.48-1.15,1.54-2.32,3.45-2.32
		c1.61,0,2.87,0.8,3.33,2.28c0.57-1.2,1.72-2.28,3.75-2.28c1.77,0,3.61,1.01,3.61,4.21v7.57h-1.15v-7.43c0-1.54-0.55-3.22-2.69-3.22
		c-2.23,0-3.24,1.79-3.24,4.02v6.62h-1.13v-7.4c0-1.68-0.51-3.24-2.62-3.24c-2.23,0-3.31,1.98-3.31,4.32v6.32h-1.15V196.69z"/>
	<path d="M116.63,199.61c0.02,2.97,1.52,4.81,3.73,4.81c2.16,0,2.9-1.22,3.31-2.16h1.17c-0.48,1.52-1.7,3.24-4.53,3.24
		c-3.5,0-4.85-3.01-4.85-5.93c0-3.29,1.63-6.12,4.99-6.12c3.54,0,4.67,3.06,4.67,5.22c0,0.32,0,0.64-0.02,0.94H116.63z
		 M123.92,198.6c-0.02-2.28-1.26-4.07-3.52-4.07c-2.37,0-3.45,1.66-3.7,4.07H123.92z"/>
	<path d="M128.2,202.05c0.39,1.49,1.45,2.39,3.27,2.39c2.05,0,2.87-0.94,2.87-2.23c0-1.31-0.55-1.95-3.13-2.58
		c-2.97-0.71-3.7-1.61-3.7-3.13c0-1.59,1.2-3.06,3.79-3.06c2.6,0,3.84,1.59,4.02,3.22h-1.15c-0.21-0.97-0.97-2.16-2.92-2.16
		c-2,0-2.58,0.99-2.58,1.91c0,1.06,0.55,1.59,2.83,2.14c3.24,0.78,4.05,1.84,4.05,3.56c0,2.09-1.7,3.38-4.12,3.38
		c-2.62,0-4.09-1.38-4.42-3.45H128.2z"/>
	<path d="M144.76,189.13h5.33c4.42,0,7.47,3.08,7.47,7.91c0,4.81-2.99,8.19-7.5,8.19h-5.31V189.13z M146,204.08h3.89
		c4.25,0,6.35-2.99,6.35-6.97c0-3.54-1.89-6.83-6.35-6.83H146V204.08z"/>
	<path d="M168.63,203.04c0,1.01,0.09,1.82,0.16,2.18h-1.1c-0.09-0.28-0.16-0.78-0.21-1.77c-0.39,0.85-1.4,2.05-3.77,2.05
		c-2.67,0-3.82-1.72-3.82-3.45c0-2.53,1.95-3.68,5.4-3.68c0.97,0,1.72,0,2.18,0v-1.17c0-1.15-0.35-2.69-2.97-2.69
		c-2.32,0-2.67,1.22-2.92,2.16h-1.15c0.14-1.27,0.92-3.22,4.09-3.22c2.62,0,4.09,1.1,4.09,3.63V203.04z M167.51,199.36
		c-0.44,0-1.49,0-2.25,0c-2.55,0-4.14,0.67-4.14,2.64c0,1.45,1.03,2.44,2.64,2.44c3.29,0,3.75-2.18,3.75-4.67V199.36z"/>
	<path d="M170.59,193.73h2.14v-3.59h1.15v3.59h2.74v1.08h-2.74v7.47c0,1.29,0.28,2.02,1.38,2.02c0.34,0,0.83-0.02,1.2-0.14v1.01
		c-0.39,0.16-0.94,0.21-1.43,0.21c-1.47,0-2.3-0.74-2.3-2.58v-8h-2.14V193.73z"/>
	<path d="M186.85,203.04c0,1.01,0.09,1.82,0.16,2.18h-1.1c-0.09-0.28-0.16-0.78-0.21-1.77c-0.39,0.85-1.4,2.05-3.77,2.05
		c-2.67,0-3.82-1.72-3.82-3.45c0-2.53,1.95-3.68,5.4-3.68c0.97,0,1.72,0,2.18,0v-1.17c0-1.15-0.34-2.69-2.97-2.69
		c-2.32,0-2.67,1.22-2.92,2.16h-1.15c0.14-1.27,0.92-3.22,4.09-3.22c2.62,0,4.09,1.1,4.09,3.63V203.04z M185.72,199.36
		c-0.44,0-1.5,0-2.25,0c-2.55,0-4.14,0.67-4.14,2.64c0,1.45,1.03,2.44,2.64,2.44c3.29,0,3.75-2.18,3.75-4.67V199.36z"/>
</g>
</svg>
