<?xml version="1.0" encoding="utf-8"?>
<!-- Generator: Adobe Illustrator 27.0.0, SVG Export Plug-In . SVG Version: 6.00 Build 0)  -->
<svg version="1.1" id="Layer_1" xmlns="http://www.w3.org/2000/svg" xmlns:xlink="http://www.w3.org/1999/xlink" x="0px" y="0px"
	 viewBox="0 0 234 234" style="enable-background:new 0 0 234 234;" xml:space="preserve">
<style type="text/css">
	.st0{fill:url(#SVGID_1_);}
	.st1{fill:url(#SVGID_00000163041438445296247420000009412901277979273098_);}
	.st2{fill:url(#SVGID_00000121275266816796432870000004321338737136901563_);}
	.st3{fill:url(#SVGID_00000028309217094675001070000001980845021232076988_);}
	.st4{fill:url(#SVGID_00000075860979477785230610000002107104670751659908_);}
	.st5{fill:url(#SVGID_00000178921226626143974100000017725006208289542327_);}
	.st6{fill:url(#SVGID_00000134221669408736801450000012397583244242302082_);}
	.st7{fill:url(#SVGID_00000139994382641895360100000014923032137424719030_);}
	.st8{fill:url(#SVGID_00000060721493743502849990000015355888557115985324_);}
	.st9{fill:url(#SVGID_00000001623402044186872870000011553592733227783318_);}
	.st10{fill:url(#SVGID_00000160170962891484217450000000156455757684694914_);}
	.st11{fill:url(#SVGID_00000108279714778877478610000007443922531982432443_);}
	.st12{fill:url(#SVGID_00000102539683399799878670000017219244263694488461_);}
	.st13{fill:url(#SVGID_00000134219631112344233390000011225747004776415372_);}
	.st14{fill:url(#SVGID_00000173148778505999386080000007449120141572465831_);}
	.st15{fill:url(#SVGID_00000039094897914404946710000016358290797820310701_);}
	.st16{fill:url(#SVGID_00000130622853003234367880000018349976338342053813_);}
	.st17{fill:url(#SVGID_00000098921941189329619670000002967433299040319899_);}
	.st18{fill:url(#SVGID_00000063618800566901847560000007934372676798119054_);}
	.st19{fill:url(#SVGID_00000062152104495119447230000003572024073173955210_);}
	.st20{fill:url(#SVGID_00000080181573228302599790000012677548494210573732_);}
	.st21{fill:url(#SVGID_00000138554015910978501210000010305103662041734038_);}
	.st22{fill:url(#SVGID_00000183246371280125311920000017941690744217557436_);}
	.st23{fill:url(#SVGID_00000147926830007139963750000014695918985554642861_);}
	.st24{fill:#FFFFFF;}
</style>
<g>
	<g>
		<linearGradient id="SVGID_1_" gradientUnits="userSpaceOnUse" x1="33.2019" y1="88.5802" x2="105.2007" y2="88.5802">
			<stop  offset="0" style="stop-color:#253F93"/>
			<stop  offset="1" style="stop-color:#00AEEF"/>
		</linearGradient>
		<path class="st0" d="M69.4,52.58c19.81,0.12,35.96,16.42,35.79,36.14c-0.17,20.08-16.33,35.98-36.46,35.85
			c-19.79-0.12-35.69-16.46-35.53-36.52C33.35,68.46,49.68,52.46,69.4,52.58z M69.06,109.66c2.83,0,5.66,0.03,8.48,0
			c6.83-0.08,12.32-5.01,12.62-11.81c0.27-6.22,0.27-12.46,0-18.68c-0.28-6.51-5.58-11.52-12.08-11.67
			c-5.93-0.14-11.88-0.15-17.81,0.01c-6.84,0.18-12.08,5.61-12.19,12.49c-0.09,5.73-0.1,11.47,0,17.2
			c0.12,6.89,5.64,12.33,12.5,12.45C63.4,109.7,66.23,109.66,69.06,109.66z"/>
		
			<linearGradient id="SVGID_00000034062320421871841660000011635462087730684552_" gradientUnits="userSpaceOnUse" x1="52.0494" y1="88.5805" x2="86.2973" y2="88.5805">
			<stop  offset="0" style="stop-color:#253F93"/>
			<stop  offset="1" style="stop-color:#00AEEF"/>
		</linearGradient>
		<path style="fill:url(#SVGID_00000034062320421871841660000011635462087730684552_);" d="M69.13,71.4c2.76,0,5.52-0.03,8.27,0.01
			c5.16,0.07,8.8,3.67,8.85,8.85c0.05,5.52,0.05,11.05,0,16.57c-0.04,5.14-3.69,8.82-8.85,8.89c-5.44,0.07-10.89,0.07-16.33,0
			c-5.31-0.07-8.92-3.7-8.98-8.99c-0.06-5.38-0.06-10.76-0.01-16.14c0.05-5.58,3.65-9.14,9.2-9.17C63.9,71.39,66.52,71.4,69.13,71.4
			z M59.01,88.54c0,5.77,4.65,10.45,10.34,10.43c5.69-0.02,10.42-4.75,10.43-10.42c0.01-5.69-4.7-10.4-10.41-10.4
			C63.63,78.15,59,82.79,59.01,88.54z M80.51,79.9c1.41-0.19,2.29-1.02,2.28-2.5c-0.01-1.49-0.97-2.31-2.41-2.42
			c-1.33-0.1-2.61,1.27-2.46,2.61C78.08,79.04,78.96,79.83,80.51,79.9z"/>
		
			<linearGradient id="SVGID_00000000217762406161195150000015185667687589410222_" gradientUnits="userSpaceOnUse" x1="62.7153" y1="88.58" x2="76" y2="88.58">
			<stop  offset="0" style="stop-color:#253F93"/>
			<stop  offset="1" style="stop-color:#00AEEF"/>
		</linearGradient>
		<path style="fill:url(#SVGID_00000000217762406161195150000015185667687589410222_);" d="M69.26,81.96
			c3.75-0.04,6.77,2.95,6.74,6.67c-0.03,3.52-2.95,6.49-6.45,6.57c-3.72,0.08-6.8-2.89-6.83-6.61
			C62.68,84.94,65.59,81.99,69.26,81.96z"/>
	</g>
	<g>
		
			<linearGradient id="SVGID_00000082362633209677566470000008581479007195270815_" gradientUnits="userSpaceOnUse" x1="105.1955" y1="63.8162" x2="177.1955" y2="63.8162">
			<stop  offset="0.0184" style="stop-color:#00AEEF"/>
			<stop  offset="1" style="stop-color:#2B3990"/>
		</linearGradient>
		<path style="fill:url(#SVGID_00000082362633209677566470000008581479007195270815_);" d="M141.17,27.82
			c19.63-0.09,35.96,16.08,36.02,35.66c0.06,20.06-15.89,36.29-35.72,36.34c-20.02,0.05-36.2-15.93-36.28-35.83
			C105.12,44.08,121.2,27.91,141.17,27.82z M124.84,49.18c-2.12,3.1-1.65,6.18,1.52,10.58c-0.99-0.2-1.82-0.37-2.8-0.57
			c0.08,3.71,2.12,5.96,5.18,7.78c-0.94,0.17-1.54,0.27-2.74,0.48c1.24,1.45,2.07,2.77,3.23,3.67c1.18,0.91,2.68,1.39,4.21,2.13
			c-3.3,2.27-6.9,2.98-11.07,2.99c0.58,0.49,0.8,0.74,1.08,0.9c8.18,4.88,20.63,3.32,27.43-3.36c4.16-4.1,6-9.21,6.39-14.87
			c0.14-2.02,0.47-3.68,2.21-4.92c0.66-0.47,1.08-1.3,1.86-2.28c-1.32,0.23-2.12,0.36-3.06,0.52c0.76-1.28,1.4-2.37,2.04-3.46
			c-0.97-0.01-1.63,0.19-2.25,0.48c-1.56,0.74-2.81,0.76-4.43-0.35c-4.63-3.17-11.4-0.09-12.35,5.45c-0.16,0.96-0.12,1.95-0.18,3.13
			C134.63,56.66,129.24,54.09,124.84,49.18z"/>
	</g>
	<g>
		
			<linearGradient id="SVGID_00000169549745428833579220000007123930929785326524_" gradientUnits="userSpaceOnUse" x1="90.3665" y1="138.9479" x2="162.3665" y2="138.9479">
			<stop  offset="0.0184" style="stop-color:#00AEEF"/>
			<stop  offset="1" style="stop-color:#2B3990"/>
		</linearGradient>
		<path style="fill:url(#SVGID_00000169549745428833579220000007123930929785326524_);" d="M132.12,174.94c0-8.27,0-16.53,0-25.04
			c2.68,0,5.33,0,8.25,0c0.55-3.54,1.06-6.88,1.63-10.55c-3.41,0-6.54,0-9.81,0c0-3.03-0.25-5.81,0.07-8.52
			c0.3-2.55,2.21-3.86,5.03-4.03c1.62-0.1,3.24-0.02,5.17-0.02c0-2.83,0.04-5.45-0.05-8.06c-0.01-0.35-0.71-0.96-1.11-0.98
			c-3.45-0.15-6.98-0.64-10.36-0.16c-5.81,0.83-9.53,5.24-10,11.14c-0.21,2.56-0.15,5.14-0.2,7.71c-0.02,0.85,0,1.69,0,2.79
			c-3.07,0-5.95,0-8.98,0c0,3.56,0,6.88,0,10.51c2.87,0,5.8,0,8.81,0c0,8.61,0,16.92,0,25.24c-14.43-1.63-31.28-15.71-30.15-37.53
			c1.04-19.92,17.25-34.9,36.86-34.46c19.36,0.43,34.81,16.16,35.08,35.86C162.66,160.03,145.95,173.51,132.12,174.94z"/>
	</g>
</g>
<g>
	<path d="M31.07,200.87c0.48,2.14,1.91,3.4,4.55,3.4c2.94,0,4.07-1.47,4.07-3.22c0-1.82-0.8-2.94-4.35-3.82
		c-3.4-0.85-4.88-1.96-4.88-4.28c0-2.12,1.54-4.09,4.99-4.09c3.54,0,5.04,2.16,5.24,4.12h-1.29c-0.37-1.72-1.49-2.97-4.02-2.97
		c-2.32,0-3.59,1.08-3.59,2.87c0,1.77,1.06,2.46,4.02,3.2c4.53,1.13,5.2,2.94,5.2,4.88c0,2.37-1.72,4.42-5.45,4.42
		c-4.02,0-5.5-2.34-5.79-4.51H31.07z"/>
	<path d="M53.5,199.42c0,3.2-1.77,6.05-5.2,6.05c-3.1,0-5.04-2.55-5.04-6.03c0-3.29,1.82-6.02,5.15-6.02
		C51.47,193.42,53.5,195.81,53.5,199.42z M44.48,199.44c0,2.74,1.47,4.94,3.91,4.94c2.48,0,3.89-2.05,3.89-4.94
		c0-2.71-1.38-4.94-3.93-4.94C45.72,194.5,44.48,196.69,44.48,199.44z"/>
	<path d="M64.95,201.81c-0.55,2.02-1.89,3.66-4.46,3.66c-2.87,0-4.92-2.14-4.92-5.98c0-3.15,1.68-6.07,5.06-6.07
		c2.92,0,4.12,2.07,4.32,3.68h-1.17c-0.34-1.33-1.22-2.6-3.17-2.6c-2.44,0-3.82,2.07-3.82,4.94c0,2.74,1.29,4.94,3.7,4.94
		c1.68,0,2.69-0.85,3.29-2.58H64.95z"/>
	<path d="M67.92,188.25h1.15v2.23h-1.15V188.25z M67.92,193.7h1.15v11.5h-1.15V193.7z"/>
	<path d="M80.57,203.01c0,1.01,0.09,1.82,0.16,2.18h-1.1c-0.09-0.28-0.16-0.78-0.21-1.77c-0.39,0.85-1.4,2.05-3.77,2.05
		c-2.67,0-3.82-1.72-3.82-3.45c0-2.53,1.95-3.68,5.4-3.68c0.97,0,1.72,0,2.18,0v-1.17c0-1.15-0.34-2.69-2.97-2.69
		c-2.32,0-2.67,1.22-2.92,2.16h-1.15c0.14-1.27,0.92-3.22,4.09-3.22c2.62,0,4.09,1.1,4.09,3.63V203.01z M79.44,199.33
		c-0.44,0-1.49,0-2.25,0c-2.55,0-4.14,0.67-4.14,2.64c0,1.45,1.03,2.44,2.64,2.44c3.29,0,3.75-2.18,3.75-4.67V199.33z"/>
	<path d="M84.36,205.19v-16.95h1.15v16.95H84.36z"/>
	<path d="M109.57,197.79c0-3.15,0.02-6.16,0.09-7.77h-0.07c-0.64,2.16-3.91,10.09-5.96,15.18h-1.22c-1.54-3.93-4.92-12.76-5.66-15.2
		h-0.05c0.11,1.84,0.16,5.59,0.16,8.35v6.85h-1.24v-16.1h1.86c2.21,5.52,4.99,12.74,5.59,14.56h0.05c0.37-1.17,3.59-9.2,5.84-14.56
		h1.84v16.1h-1.24V197.79z"/>
	<path d="M115.11,199.58c0.02,2.97,1.52,4.81,3.73,4.81c2.16,0,2.9-1.22,3.31-2.16h1.17c-0.48,1.52-1.7,3.24-4.53,3.24
		c-3.5,0-4.85-3.01-4.85-5.93c0-3.29,1.63-6.12,4.99-6.12c3.54,0,4.67,3.06,4.67,5.22c0,0.32,0,0.64-0.02,0.94H115.11z
		 M122.4,198.57c-0.02-2.28-1.26-4.07-3.52-4.07c-2.37,0-3.45,1.66-3.7,4.07H122.4z"/>
	<path d="M135.4,188.25v13.64c0,1.1,0,2.16,0.02,3.31h-1.1c-0.05-0.28-0.07-1.36-0.07-1.93c-0.57,1.4-1.86,2.21-3.86,2.21
		c-2.99,0-4.78-2.44-4.78-5.89c0-3.54,1.95-6.16,5.08-6.16c2.3,0,3.22,0.99,3.56,1.72v-6.9H135.4z M126.82,199.54
		c0,3.15,1.63,4.85,3.61,4.85c3.04,0,3.86-2.09,3.86-5.22c0-2.97-0.71-4.67-3.66-4.67C128.36,194.5,126.82,196.32,126.82,199.54z"/>
	<path d="M139.17,188.25h1.15v2.23h-1.15V188.25z M139.17,193.7h1.15v11.5h-1.15V193.7z"/>
	<path d="M151.82,203.01c0,1.01,0.09,1.82,0.16,2.18h-1.1c-0.09-0.28-0.16-0.78-0.21-1.77c-0.39,0.85-1.4,2.05-3.77,2.05
		c-2.67,0-3.82-1.72-3.82-3.45c0-2.53,1.95-3.68,5.4-3.68c0.97,0,1.72,0,2.18,0v-1.17c0-1.15-0.35-2.69-2.97-2.69
		c-2.32,0-2.67,1.22-2.92,2.16h-1.15c0.14-1.27,0.92-3.22,4.09-3.22c2.62,0,4.09,1.1,4.09,3.63V203.01z M150.69,199.33
		c-0.44,0-1.49,0-2.25,0c-2.55,0-4.14,0.67-4.14,2.64c0,1.45,1.03,2.44,2.64,2.44c3.29,0,3.75-2.18,3.75-4.67V199.33z"/>
	<path d="M161.96,189.1h5.33c4.42,0,7.47,3.08,7.47,7.91c0,4.81-2.99,8.19-7.5,8.19h-5.31V189.1z M163.21,204.04h3.89
		c4.25,0,6.35-2.99,6.35-6.97c0-3.54-1.88-6.83-6.35-6.83h-3.89V204.04z"/>
	<path d="M185.84,203.01c0,1.01,0.09,1.82,0.16,2.18h-1.1c-0.09-0.28-0.16-0.78-0.21-1.77c-0.39,0.85-1.4,2.05-3.77,2.05
		c-2.67,0-3.82-1.72-3.82-3.45c0-2.53,1.95-3.68,5.4-3.68c0.97,0,1.72,0,2.18,0v-1.17c0-1.15-0.34-2.69-2.97-2.69
		c-2.32,0-2.67,1.22-2.92,2.16h-1.15c0.14-1.27,0.92-3.22,4.09-3.22c2.62,0,4.09,1.1,4.09,3.63V203.01z M184.71,199.33
		c-0.44,0-1.5,0-2.25,0c-2.55,0-4.14,0.67-4.14,2.64c0,1.45,1.03,2.44,2.64,2.44c3.29,0,3.75-2.18,3.75-4.67V199.33z"/>
	<path d="M187.79,193.7h2.14v-3.59h1.15v3.59h2.74v1.08h-2.74v7.47c0,1.29,0.28,2.02,1.38,2.02c0.34,0,0.83-0.02,1.2-0.14v1.01
		c-0.39,0.16-0.94,0.21-1.43,0.21c-1.47,0-2.3-0.74-2.3-2.58v-8h-2.14V193.7z"/>
	<path d="M204.05,203.01c0,1.01,0.09,1.82,0.16,2.18h-1.1c-0.09-0.28-0.16-0.78-0.21-1.77c-0.39,0.85-1.4,2.05-3.77,2.05
		c-2.67,0-3.82-1.72-3.82-3.45c0-2.53,1.95-3.68,5.4-3.68c0.97,0,1.72,0,2.18,0v-1.17c0-1.15-0.34-2.69-2.97-2.69
		c-2.32,0-2.67,1.22-2.92,2.16h-1.15c0.14-1.27,0.92-3.22,4.09-3.22c2.62,0,4.09,1.1,4.09,3.63V203.01z M202.93,199.33
		c-0.44,0-1.5,0-2.25,0c-2.55,0-4.14,0.67-4.14,2.64c0,1.45,1.03,2.44,2.64,2.44c3.29,0,3.75-2.18,3.75-4.67V199.33z"/>
</g>
</svg>
