<?xml version="1.0" encoding="utf-8"?>
<!-- Generator: Adobe Illustrator 27.0.0, SVG Export Plug-In . SVG Version: 6.00 Build 0)  -->
<svg version="1.1" id="Layer_1" xmlns="http://www.w3.org/2000/svg" xmlns:xlink="http://www.w3.org/1999/xlink" x="0px" y="0px"
	 viewBox="0 0 234 234" style="enable-background:new 0 0 234 234;" xml:space="preserve">
<style type="text/css">
	.st0{fill:url(#SVGID_1_);}
	.st1{fill:url(#SVGID_00000150818261023260923250000003180615689830712708_);}
	.st2{fill:url(#SVGID_00000180338727565245381390000007575000175053731236_);}
	.st3{fill:url(#SVGID_00000013163021237926398870000005452114325293784249_);}
	.st4{fill:url(#SVGID_00000062165992490484755800000002878034330137736632_);}
	.st5{fill:url(#SVGID_00000029743683828786860330000006797310739444525232_);}
	.st6{fill:url(#SVGID_00000093894842937892003180000017184951317022284431_);}
	.st7{fill:url(#SVGID_00000130630871992702433590000009506193791618292619_);}
	.st8{fill:url(#SVGID_00000163056007252083312620000013431818137220662417_);}
	.st9{fill:url(#SVGID_00000074421935119760479950000007390212151928562830_);}
	.st10{fill:url(#SVGID_00000016772353696244496280000006220100406343458977_);}
	.st11{fill:url(#SVGID_00000082347172179296045130000017527651296965969027_);}
	.st12{fill:url(#SVGID_00000142887179712833072710000005093626849137001376_);}
	.st13{fill:url(#SVGID_00000025414357412475351950000010969287925416872863_);}
	.st14{fill:url(#SVGID_00000135686125816078546910000008177490360390596238_);}
	.st15{fill:url(#SVGID_00000059303306796776156770000015759089651415587772_);}
	.st16{fill:url(#SVGID_00000114784302874835470180000008148067293057404586_);}
	.st17{fill:url(#SVGID_00000155136333261965475960000018128848640543976084_);}
	.st18{fill:url(#SVGID_00000072966984444432777460000001915435071847158420_);}
	.st19{fill:url(#SVGID_00000008857870343000675670000002785595313617352097_);}
	.st20{fill:url(#SVGID_00000101801927358783346950000015313450706571509134_);}
	.st21{fill:url(#SVGID_00000036964122705443908630000016404232063930076058_);}
	.st22{fill:url(#SVGID_00000093868116340289637600000009594789861714071471_);}
	.st23{fill:url(#SVGID_00000013193297285355283230000010155836277605508495_);}
	.st24{fill:url(#SVGID_00000170244799613332061620000016544415729675520141_);}
	.st25{fill:#FFFFFF;}
	.st26{fill:url(#SVGID_00000163753216357571798200000018241961260919818139_);}
	.st27{fill:url(#SVGID_00000155842109646124375530000012769831968008347064_);}
	.st28{fill:url(#SVGID_00000088841147955643399430000016519833947223452053_);}
</style>
<g>
	<linearGradient id="SVGID_1_" gradientUnits="userSpaceOnUse" x1="55.8" y1="108.2386" x2="178.2" y2="108.2386">
		<stop  offset="0" style="stop-color:#2A3990"/>
		<stop  offset="8.744050e-08" style="stop-color:#0061AA"/>
		<stop  offset="2.770450e-07" style="stop-color:#00AEEF"/>
		<stop  offset="0.0912" style="stop-color:#00A9EB"/>
		<stop  offset="0.224" style="stop-color:#00A0E2"/>
		<stop  offset="0.3823" style="stop-color:#0092D4"/>
		<stop  offset="0.5602" style="stop-color:#007DC1"/>
		<stop  offset="0.7544" style="stop-color:#0063AB"/>
		<stop  offset="0.9594" style="stop-color:#224194"/>
		<stop  offset="1" style="stop-color:#2B3990"/>
	</linearGradient>
	<path class="st0" d="M116.96,47.04c33.37-0.16,61.13,27.33,61.24,60.62c0.1,34.1-27.01,61.69-60.72,61.78
		c-34.03,0.09-61.55-27.08-61.67-60.9C55.67,74.68,83.01,47.2,116.96,47.04z M89.19,83.35c-3.6,5.26-2.81,10.51,2.58,17.98
		c-1.68-0.34-3.1-0.63-4.76-0.96c0.14,6.31,3.6,10.13,8.8,13.23c-1.6,0.28-2.61,0.46-4.66,0.82c2.11,2.46,3.51,4.71,5.49,6.23
		c2,1.54,4.56,2.36,7.15,3.62c-5.61,3.85-11.72,5.06-18.81,5.08c0.99,0.83,1.37,1.25,1.83,1.53c13.9,8.29,35.07,5.65,46.63-5.72
		c7.08-6.96,10.19-15.66,10.86-25.28c0.24-3.44,0.79-6.26,3.75-8.37c1.13-0.81,1.83-2.2,3.17-3.88c-2.24,0.38-3.6,0.61-5.2,0.89
		c1.28-2.18,2.38-4.03,3.47-5.88c-1.64-0.02-2.77,0.32-3.82,0.82c-2.64,1.25-4.78,1.29-7.53-0.6c-7.87-5.4-19.38-0.16-21,9.26
		c-0.28,1.63-0.21,3.31-0.31,5.33C105.85,96.07,96.67,91.7,89.19,83.35z"/>
</g>
<g>
	<g>
		<path d="M64.64,190.36h-5.4v-1.15h12.1v1.15h-5.43v14.95h-1.26V190.36z"/>
		<path d="M73.38,193.81c1.7,5.93,2.69,9.34,2.87,10.35h0.02c0.18-0.92,1.33-4.53,3.13-10.35h1.24c2.14,7.11,2.78,9.15,2.99,10.05
			h0.02c0.32-1.27,0.85-2.99,2.97-10.05h1.22l-3.63,11.5h-1.26c-1.24-4.07-2.74-9.06-2.97-10.12h-0.02
			c-0.23,1.13-1.54,5.24-3.04,10.12h-1.38l-3.38-11.5H73.38z"/>
		<path d="M90.42,188.36h1.15v2.23h-1.15V188.36z M90.42,193.81h1.15v11.5h-1.15V193.81z"/>
		<path d="M93.62,193.81h2.14v-3.59h1.15v3.59h2.74v1.08h-2.74v7.47c0,1.29,0.28,2.02,1.38,2.02c0.34,0,0.83-0.02,1.2-0.14v1.01
			c-0.39,0.16-0.94,0.21-1.43,0.21c-1.47,0-2.3-0.74-2.3-2.58v-8h-2.14V193.81z"/>
		<path d="M100.27,193.81h2.14v-3.59h1.15v3.59h2.74v1.08h-2.74v7.47c0,1.29,0.28,2.02,1.38,2.02c0.34,0,0.83-0.02,1.2-0.14v1.01
			c-0.39,0.16-0.94,0.21-1.43,0.21c-1.47,0-2.3-0.74-2.3-2.58v-8h-2.14V193.81z"/>
		<path d="M108.89,199.7c0.02,2.97,1.52,4.81,3.73,4.81c2.16,0,2.9-1.22,3.31-2.16h1.17c-0.48,1.52-1.7,3.24-4.53,3.24
			c-3.5,0-4.85-3.01-4.85-5.93c0-3.29,1.63-6.12,4.99-6.12c3.54,0,4.67,3.06,4.67,5.22c0,0.32,0,0.64-0.02,0.94H108.89z
			 M116.18,198.69c-0.02-2.28-1.26-4.07-3.52-4.07c-2.37,0-3.45,1.66-3.7,4.07H116.18z"/>
		<path d="M120.19,196.94c0-1.93-0.02-2.76-0.02-3.13h1.13c0.02,0.37,0.05,1.1,0.05,2.58c0.67-1.72,2.14-2.76,4-2.85v1.24
			c-2.39,0.16-4,1.82-4,4.55v5.98h-1.15V196.94z"/>
		<path d="M133.99,189.21h5.33c4.42,0,7.47,3.08,7.47,7.91c0,4.81-2.99,8.19-7.5,8.19h-5.31V189.21z M135.23,204.16h3.89
			c4.25,0,6.35-2.99,6.35-6.97c0-3.54-1.89-6.83-6.35-6.83h-3.89V204.16z"/>
		<path d="M157.86,203.13c0,1.01,0.09,1.82,0.16,2.18h-1.1c-0.09-0.28-0.16-0.78-0.21-1.77c-0.39,0.85-1.4,2.05-3.77,2.05
			c-2.67,0-3.82-1.72-3.82-3.45c0-2.53,1.96-3.68,5.4-3.68c0.97,0,1.72,0,2.18,0v-1.17c0-1.15-0.34-2.69-2.97-2.69
			c-2.32,0-2.67,1.22-2.92,2.16h-1.15c0.14-1.27,0.92-3.22,4.09-3.22c2.62,0,4.09,1.1,4.09,3.63V203.13z M156.73,199.45
			c-0.44,0-1.49,0-2.25,0c-2.55,0-4.14,0.67-4.14,2.64c0,1.45,1.04,2.44,2.64,2.44c3.29,0,3.75-2.18,3.75-4.67V199.45z"/>
		<path d="M159.93,193.81h2.14v-3.59h1.15v3.59h2.74v1.08h-2.74v7.47c0,1.29,0.28,2.02,1.38,2.02c0.34,0,0.83-0.02,1.2-0.14v1.01
			c-0.39,0.16-0.94,0.21-1.43,0.21c-1.47,0-2.3-0.74-2.3-2.58v-8h-2.14V193.81z"/>
		<path d="M176.19,203.13c0,1.01,0.09,1.82,0.16,2.18h-1.1c-0.09-0.28-0.16-0.78-0.21-1.77c-0.39,0.85-1.4,2.05-3.77,2.05
			c-2.67,0-3.82-1.72-3.82-3.45c0-2.53,1.95-3.68,5.4-3.68c0.97,0,1.72,0,2.18,0v-1.17c0-1.15-0.34-2.69-2.97-2.69
			c-2.32,0-2.67,1.22-2.92,2.16H168c0.14-1.27,0.92-3.22,4.09-3.22c2.62,0,4.09,1.1,4.09,3.63V203.13z M175.06,199.45
			c-0.44,0-1.5,0-2.25,0c-2.55,0-4.14,0.67-4.14,2.64c0,1.45,1.03,2.44,2.64,2.44c3.29,0,3.75-2.18,3.75-4.67V199.45z"/>
	</g>
</g>
<rect x="46.06" y="27.52" class="st25" width="23.32" height="5.71"/>
</svg>
