<?xml version="1.0" encoding="utf-8"?>
<!-- Generator: Adobe Illustrator 27.0.0, SVG Export Plug-In . SVG Version: 6.00 Build 0)  -->
<svg version="1.1" id="visual" xmlns="http://www.w3.org/2000/svg" xmlns:xlink="http://www.w3.org/1999/xlink" x="0px" y="0px"
	 viewBox="0 0 960 172.7" style="enable-background:new 0 0 960 172.7;" xml:space="preserve">
<style type="text/css">
	.st0{fill:#BFCFE9;}
	.st1{fill:#8EA6D4;}
	.st2{fill:#5F7EBE;}
	.st3{fill:#2B58A7;}
</style>
<path class="st0" d="M960,30.7v142H0v-96l22.8-11.2C45.7,54.4,91.3,32,137,31.4c14-0.2,27.9,1.6,41.9,4.5
	c31.7,6.5,63.4,18.5,95.1,24.6c42.1,8.2,84.1,6,126.3,0.5c3.6-0.5,7.2-1,10.9-1.5c20-2.8,40.1-6.3,60.2-10.3
	c25.8-5.2,51.6-11.4,77.4-18.8C594.7,17.4,640.3,1,686,0.7s91.3,15.3,137,23s91.3,7.3,114.2,7.2L960,30.7z"/>
<path class="st1" d="M960,52.7v120H0v-157l22.8-1.3c22.9-1.4,68.5-4,114.2,5.8c17.1,3.7,34.3,9.1,51.4,14.7
	c28.5,9.3,57.1,19.1,85.6,21.8c28.2,2.7,56.3-1.5,84.4-5.4c17.6-2.4,35.1-4.8,52.8-5.4c20-0.7,40.1,1,60.2,3.2
	c25.8,2.9,51.6,6.7,77.4,7.8c45.9,2,91.5-4.6,137.2-8.5c45.7-3.8,91.3-4.8,137-3.6c38.1,0.9,76.1,3.4,100.9,5.2
	c5,0.3,9.4,0.7,13.3,0.9L960,52.7z"/>
<path class="st2" d="M960,36.7v136H0v-65l22.8-12.8C45.7,82,91.3,56.4,137,43.9c14-3.8,27.9-6.4,41.9-8c3.2-0.4,6.4-0.7,9.5-1
	c28.5-2.4,57.1-1,85.6,2.3c28.2,3.2,56.3,8.1,84.4,14.1c14,3,27.9,6.2,41.9,9.7c3.6,0.9,7.2,1.8,10.9,2.7
	C457,75.4,503,89,548.8,90.5c45.9,1.5,91.5-9.1,137.2-11.6s91.3,3.1,137-2.5c38.1-4.8,76.1-17.3,100.9-26.3c5-1.8,9.4-3.5,13.3-4.9
	L960,36.7z"/>
<path class="st3" d="M960,127.7v45H0v-56l22.8-7c22.9-7,68.5-21,114.2-20.2c45.7,0.9,91.3,16.5,137,26.2s91.3,13.3,137.2,11.5
	c45.8-1.8,91.8-9.2,137.6-10.8c45.9-1.7,91.5,2.3,137.2,0.3s91.3-10,137-9.2c45.7,0.9,91.3,10.5,114.2,15.4L960,127.7z"/>
</svg>
