<?xml version="1.0" encoding="utf-8"?>
<!-- Generator: Adobe Illustrator 27.0.0, SVG Export Plug-In . SVG Version: 6.00 Build 0)  -->
<svg version="1.1" id="Layer_1" xmlns="http://www.w3.org/2000/svg" xmlns:xlink="http://www.w3.org/1999/xlink" x="0px" y="0px"
	 viewBox="0 0 234 234" style="enable-background:new 0 0 234 234;" xml:space="preserve">
<style type="text/css">
	.st0{fill:url(#SVGID_1_);}
	.st1{fill:url(#SVGID_00000095339077899049602680000001039281772498585729_);}
	.st2{fill:url(#SVGID_00000179636360250326752250000009827728150461720975_);}
	.st3{fill:url(#SVGID_00000057859714089819552660000007406163699509214897_);}
	.st4{fill:url(#SVGID_00000115475992462015142060000007481379385204411524_);}
	.st5{fill:url(#SVGID_00000122000160044795260190000007485417853596714431_);}
	.st6{fill:url(#SVGID_00000029046573257811206960000009605589405614881184_);}
	.st7{fill:url(#SVGID_00000050629582150268593400000016230091596930953407_);}
	.st8{fill:url(#SVGID_00000080195108661974339920000001131927471128224698_);}
	.st9{fill:url(#SVGID_00000087402018219995788840000012562897270098031502_);}
	.st10{fill:url(#SVGID_00000170271203663729566970000014850212108459766665_);}
	.st11{fill:url(#SVGID_00000094588998128510859990000007285643581011192492_);}
	.st12{fill:url(#SVGID_00000018236466101769252850000012956846943347258806_);}
	.st13{fill:url(#SVGID_00000000189051409185529020000010122110930658279598_);}
	.st14{fill:url(#SVGID_00000134212309214964337850000010458665874205711253_);}
	.st15{fill:url(#SVGID_00000105427032158503415320000007333165401395676853_);}
	.st16{fill:url(#SVGID_00000005229048941055533850000004663866930412799616_);}
	.st17{fill:url(#SVGID_00000045616281025762796800000016647082254029461689_);}
	.st18{fill:url(#SVGID_00000147213830355372353890000011766209187099553694_);}
	.st19{fill:url(#SVGID_00000165227995385662930820000017201210302782960006_);}
	.st20{fill:url(#SVGID_00000107550662267411852860000010482308022435437195_);}
	.st21{fill:url(#SVGID_00000034784277782855996800000003450307920144241334_);}
	.st22{fill:url(#SVGID_00000172416909267510354240000013048810226871149746_);}
	.st23{fill:url(#SVGID_00000163758225075279793300000002183524209502691735_);}
	.st24{fill:url(#SVGID_00000089541824645681555560000017635288314896228234_);}
	.st25{fill:#FFFFFF;}
	.st26{fill:url(#SVGID_00000073706818769765988180000014136266241708950928_);}
	.st27{fill:url(#SVGID_00000052803048349119206510000008103680127921696646_);}
	.st28{fill:url(#SVGID_00000121972883153439884090000017694601908020652672_);}
	.st29{fill:url(#SVGID_00000146459533406889798530000006644424805427271562_);}
	.st30{fill:url(#SVGID_00000120555248487519360870000005102287124046636730_);}
	.st31{fill:url(#SVGID_00000010268971579038576220000011366970206278966952_);}
	.st32{fill:#8E99CD;}
	.st33{fill:url(#SVGID_00000031886212601602334480000010446281370572136324_);}
	.st34{fill:url(#SVGID_00000160164988359439153780000003992492854407409322_);}
	.st35{fill:url(#SVGID_00000127026633870575699160000010155291824254095771_);}
	.st36{fill:url(#SVGID_00000124849336436945446650000010001680054529704616_);}
	.st37{fill:#FDFEFE;}
	.st38{fill:url(#SVGID_00000057145053318711211140000001562493652448549011_);}
	.st39{fill:url(#SVGID_00000140710084155608986120000003218947202798652335_);}
</style>
<g>
	<linearGradient id="SVGID_1_" gradientUnits="userSpaceOnUse" x1="81.9826" y1="95.365" x2="151.9665" y2="95.365">
		<stop  offset="0" style="stop-color:#2A3990"/>
		<stop  offset="8.744050e-08" style="stop-color:#0061AA"/>
		<stop  offset="2.770450e-07" style="stop-color:#00AEEF"/>
		<stop  offset="0.0912" style="stop-color:#00A9EB"/>
		<stop  offset="0.224" style="stop-color:#00A0E2"/>
		<stop  offset="0.3823" style="stop-color:#0092D4"/>
		<stop  offset="0.5602" style="stop-color:#007DC1"/>
		<stop  offset="0.7544" style="stop-color:#0063AB"/>
		<stop  offset="0.9594" style="stop-color:#224194"/>
		<stop  offset="1" style="stop-color:#2B3990"/>
	</linearGradient>
	<path class="st0" d="M116.96,147.52c-1.11-1.91-2.11-3.65-3.12-5.39c-9.06-15.62-18.14-31.22-27.16-46.86
		c-12.04-20.85,0.25-46.93,23.6-51.39c20.04-3.83,37.34,9.2,41,27.51c1.74,8.7,0.11,16.82-4.32,24.45
		c-9.76,16.81-19.51,33.63-29.26,50.44C117.5,146.62,117.29,146.96,116.96,147.52z M116.95,94.06c9.23-0.08,16.3-7.25,16.23-16.45
		c-0.07-8.52-7.53-15.78-16.17-15.72c-9.21,0.06-16.28,7.31-16.2,16.61C100.87,86.99,108.29,94.14,116.95,94.06z"/>
	
		<linearGradient id="SVGID_00000086657011415053574900000002485273933289406612_" gradientUnits="userSpaceOnUse" x1="59.1172" y1="149.5255" x2="174.8828" y2="149.5255">
		<stop  offset="0" style="stop-color:#2A3990"/>
		<stop  offset="8.744050e-08" style="stop-color:#0061AA"/>
		<stop  offset="2.770450e-07" style="stop-color:#00AEEF"/>
		<stop  offset="0.0912" style="stop-color:#00A9EB"/>
		<stop  offset="0.224" style="stop-color:#00A0E2"/>
		<stop  offset="0.3823" style="stop-color:#0092D4"/>
		<stop  offset="0.5602" style="stop-color:#007DC1"/>
		<stop  offset="0.7544" style="stop-color:#0063AB"/>
		<stop  offset="0.9594" style="stop-color:#224194"/>
		<stop  offset="1" style="stop-color:#2B3990"/>
	</linearGradient>
	<path style="fill:url(#SVGID_00000086657011415053574900000002485273933289406612_);" d="M114.31,168.25
		c15.09-0.24,27.15-1.64,38.62-6.39c3.61-1.49,7.02-3.33,9.93-5.97c1.84-1.67,3.46-3.55,3.87-6.11c0.48-3.03-0.98-5.38-2.97-7.44
		c-3.35-3.47-7.55-5.61-11.95-7.37c-5.35-2.14-10.91-3.51-16.61-4.37c-0.35-0.05-0.71-0.11-1.05-0.2c-1.03-0.29-1.48-1.17-0.97-2.12
		c0.84-1.57,1.71-3.14,2.7-4.61c0.28-0.42,1.09-0.8,1.58-0.71c9.95,1.71,19.56,4.44,27.88,10.43c2.31,1.67,4.46,3.75,6.2,6.01
		c4.62,5.99,4.41,12.98-0.26,18.95c-3.51,4.49-8.16,7.47-13.23,9.85c-7.55,3.55-15.55,5.54-23.78,6.73
		c-7.09,1.03-14.21,1.38-21.35,1.14c-11.75-0.4-23.26-2.15-34.21-6.64c-5.28-2.16-10.22-4.9-14.25-9.04
		c-2.48-2.54-4.36-5.43-5.05-8.98c-0.68-3.48-0.11-6.77,1.6-9.87c2.56-4.64,6.54-7.8,11.02-10.4c7-4.06,14.64-6.33,22.53-7.87
		c3.43-0.67,2.94-0.66,4.6,2.15c0.48,0.82,0.97,1.64,1.42,2.47c0.77,1.41,0.39,2.3-1.18,2.57c-5.15,0.89-10.26,1.97-15.19,3.75
		c-4.42,1.59-8.66,3.53-12.29,6.58c-1.05,0.89-2.04,1.89-2.88,2.98c-2.61,3.37-2.52,6.76,0.14,10.1c2.31,2.88,5.34,4.83,8.57,6.47
		c6.74,3.43,13.95,5.42,21.39,6.43C105.08,167.58,111.1,167.95,114.31,168.25z"/>
</g>
<rect x="89.33" y="27.52" class="st25" width="13.7" height="3.36"/>
<g>
	<g>
		<path d="M77.38,206.13v-6.05c0-0.14-0.05-0.3-0.09-0.37l-5.75-9.68h1.45c1.61,2.74,4.42,7.5,5.11,8.69
			c0.69-1.2,3.52-5.91,5.24-8.69h1.38l-6,9.77c-0.05,0.09-0.07,0.18-0.07,0.34v5.98H77.38z"/>
		<path d="M86.84,200.52c0.02,2.97,1.52,4.81,3.73,4.81c2.16,0,2.9-1.22,3.31-2.16h1.17c-0.48,1.52-1.7,3.24-4.53,3.24
			c-3.5,0-4.85-3.01-4.85-5.93c0-3.29,1.63-6.12,4.99-6.12c3.54,0,4.67,3.06,4.67,5.22c0,0.32,0,0.64-0.02,0.94H86.84z
			 M94.12,199.51c-0.02-2.28-1.26-4.07-3.52-4.07c-2.37,0-3.45,1.66-3.7,4.07H94.12z"/>
		<path d="M98.13,206.13v-16.95h1.15v16.95H98.13z"/>
		<path d="M104.2,204.43v6.3h-1.15v-13.27c0-0.94,0-1.96-0.02-2.83h1.13c0.05,0.44,0.05,1.13,0.05,2.07
			c0.71-1.38,1.98-2.35,4.05-2.35c2.71,0,4.6,2.28,4.6,5.73c0,4.14-2.21,6.32-4.99,6.32C105.83,206.41,104.77,205.51,104.2,204.43z
			 M111.63,200.13c0-2.67-1.29-4.67-3.56-4.67c-2.78,0-3.93,1.75-3.93,4.88c0,3.08,0.9,4.99,3.77,4.99
			C110.29,205.33,111.63,203.31,111.63,200.13z"/>
		<path d="M122.07,190.04h5.33c4.42,0,7.47,3.08,7.47,7.91c0,4.81-2.99,8.19-7.5,8.19h-5.31V190.04z M123.31,204.98h3.89
			c4.25,0,6.35-2.99,6.35-6.97c0-3.54-1.89-6.83-6.35-6.83h-3.89V204.98z"/>
		<path d="M145.94,203.95c0,1.01,0.09,1.82,0.16,2.18H145c-0.09-0.28-0.16-0.78-0.21-1.77c-0.39,0.85-1.4,2.05-3.77,2.05
			c-2.67,0-3.82-1.72-3.82-3.45c0-2.53,1.95-3.68,5.4-3.68c0.97,0,1.72,0,2.18,0v-1.17c0-1.15-0.34-2.69-2.97-2.69
			c-2.32,0-2.67,1.22-2.92,2.16h-1.15c0.14-1.27,0.92-3.22,4.09-3.22c2.62,0,4.09,1.1,4.09,3.63V203.95z M144.82,200.27
			c-0.44,0-1.5,0-2.25,0c-2.55,0-4.14,0.67-4.14,2.64c0,1.45,1.03,2.44,2.64,2.44c3.29,0,3.75-2.18,3.75-4.67V200.27z"/>
		<path d="M148.02,194.64h2.14v-3.59h1.15v3.59h2.74v1.08h-2.74v7.47c0,1.29,0.28,2.02,1.38,2.02c0.34,0,0.83-0.02,1.2-0.14v1.01
			c-0.39,0.16-0.94,0.21-1.43,0.21c-1.47,0-2.3-0.74-2.3-2.58v-8h-2.14V194.64z"/>
		<path d="M164.27,203.95c0,1.01,0.09,1.82,0.16,2.18h-1.1c-0.09-0.28-0.16-0.78-0.21-1.77c-0.39,0.85-1.4,2.05-3.77,2.05
			c-2.67,0-3.82-1.72-3.82-3.45c0-2.53,1.96-3.68,5.4-3.68c0.97,0,1.72,0,2.18,0v-1.17c0-1.15-0.34-2.69-2.97-2.69
			c-2.32,0-2.67,1.22-2.92,2.16h-1.15c0.14-1.27,0.92-3.22,4.09-3.22c2.62,0,4.09,1.1,4.09,3.63V203.95z M163.15,200.27
			c-0.44,0-1.49,0-2.25,0c-2.55,0-4.14,0.67-4.14,2.64c0,1.45,1.04,2.44,2.64,2.44c3.29,0,3.75-2.18,3.75-4.67V200.27z"/>
	</g>
</g>
</svg>
